<svg width="24" height="24" viewBox="0 0 24 24" fill="none" xmlns="http://www.w3.org/2000/svg">
<path fill-rule="evenodd" clip-rule="evenodd" d="M22.71 8.70136C22.75 9.62065 22.75 10.6998 22.75 11.9709V12V12.0453V12.0453C22.75 13.8818 22.75 15.3214 22.6263 16.4635C22.5 17.6291 22.2377 18.5734 21.6518 19.3798C21.2972 19.8679 20.8679 20.2972 20.3798 20.6518C19.5734 21.2377 18.6291 21.5 17.4635 21.6263C16.3214 21.75 14.8818 21.75 13.0453 21.75H13.0453H13H11H10.9547H10.9547C9.11817 21.75 7.67859 21.75 6.53648 21.6263C5.37094 21.5 4.42656 21.2377 3.62024 20.6518C3.13209 20.2972 2.70281 19.8679 2.34815 19.3798C1.76232 18.5734 1.50001 17.6291 1.37373 16.4635C1.24999 15.3214 1.24999 13.8818 1.25 12.0453V12.0452V12V11.9716V11.9716C1.25 10.3822 1.25 9.09323 1.32806 8.04168C1.40671 6.98237 1.56808 6.09404 1.92987 5.32797C2.04801 5.07781 2.18647 4.84277 2.34815 4.62024C2.70281 4.13209 3.13209 3.70281 3.62024 3.34815C4.42656 2.76232 5.37094 2.50001 6.53648 2.37373C7.67861 2.24999 9.11822 2.24999 10.9548 2.25H11H13H13.0452C14.3085 2.24999 15.3839 2.24999 16.3039 2.29025C16.1336 2.75808 16.0313 3.25851 16.0087 3.77962C15.1811 3.75041 14.1973 3.75 13 3.75H11C9.10843 3.75 7.74999 3.75103 6.69805 3.865C5.66013 3.97745 5.00992 4.19259 4.50191 4.56168C4.14128 4.82369 3.82412 5.14081 3.56205 5.50139L5.45926 7.3986C7.14092 9.08026 8.34994 10.287 9.39275 11.0827C10.4183 11.8651 11.1944 12.1789 12 12.1789C12.8056 12.1789 13.5817 11.8651 14.6072 11.0827C15.5275 10.3806 16.5771 9.35834 17.9667 7.97215C18.3796 8.2883 18.8431 8.54154 19.3431 8.71755C17.814 10.2462 16.5985 11.4501 15.5171 12.2752C14.3582 13.1594 13.2655 13.6789 12 13.6789C10.7345 13.6789 9.64181 13.1594 8.48288 12.2752C7.35062 11.4113 6.07144 10.1321 4.43917 8.49983L4.3986 8.45926L2.96271 7.02337C2.90131 7.34885 2.85601 7.72084 2.82395 8.15274C2.75047 9.14244 2.75 10.3764 2.75 12C2.75 13.8916 2.75103 15.25 2.865 16.302C2.97745 17.3399 3.19259 17.9901 3.56168 18.4981C3.82382 18.8589 4.14111 19.1762 4.50191 19.4383C5.00992 19.8074 5.66013 20.0225 6.69805 20.135C7.74999 20.249 9.10843 20.25 11 20.25H13C14.8916 20.25 16.25 20.249 17.302 20.135C18.3399 20.0225 18.9901 19.8074 19.4981 19.4383C19.8589 19.1762 20.1762 18.8589 20.4383 18.4981C20.8074 17.9901 21.0225 17.3399 21.135 16.302C21.249 15.25 21.25 13.8916 21.25 12C21.25 10.8074 21.2497 9.825 21.2205 8.99539C21.7416 8.97318 22.2421 8.87121 22.71 8.70136Z" fill="black"/>
<circle cx="21" cy="4" r="3" fill="#8A34E1"/>
</svg>
