<svg width="19" height="19" viewBox="0 0 19 19" fill="none" xmlns="http://www.w3.org/2000/svg">
<path d="M5.22299 13.7524C8.19174 16.718 11.7945 19 14.7331 19C16.0514 19 17.2087 18.5476 18.1345 17.5222C18.6679 16.919 19 16.2254 19 15.5317C19 14.9989 18.7987 14.4862 18.2855 14.1243L15.196 11.9328C14.7129 11.591 14.3003 11.4302 13.938 11.4302C13.465 11.4302 13.0524 11.6915 12.5895 12.154L11.8549 12.8778C11.7442 12.9884 11.6033 13.0286 11.4725 13.0286C11.3114 13.0286 11.1605 12.9683 11.0498 12.918C10.4258 12.5762 9.33898 11.6413 8.33263 10.646C7.33633 9.64074 6.40042 8.56508 6.06833 7.93175C6.00794 7.82116 5.94756 7.67037 5.94756 7.51958C5.94756 7.38889 5.98782 7.24815 6.10858 7.13757L6.82309 6.4037C7.28602 5.93122 7.55773 5.51905 7.55773 5.04656C7.55773 4.68466 7.38665 4.28254 7.04449 3.78995L4.87076 0.733862C4.49841 0.221164 3.97511 0 3.40148 0C2.72722 0 2.0429 0.301587 1.43909 0.874603C0.442797 1.81958 0 2.98571 0 4.29259C0 7.22804 2.25424 10.7868 5.22299 13.7524Z" fill="#FAFAFA"/>
</svg>
