<svg width="11" height="11" viewBox="0 0 11 11" fill="none" xmlns="http://www.w3.org/2000/svg">
<path d="M5.50028 0C8.53538 0 11 2.46462 11 5.49972C11 8.53538 8.53538 11 5.50028 11C2.46462 11 0 8.53538 0 5.49972C0 2.46462 2.46462 0 5.50028 0ZM5.50028 0.825206C2.92013 0.825206 0.825206 2.91958 0.825206 5.49972C0.825206 8.07987 2.92013 10.1748 5.50028 10.1748C8.08042 10.1748 10.1748 8.07987 10.1748 5.49972C10.1748 2.91958 8.08042 0.825206 5.50028 0.825206ZM2.72263 5.71373L4.84121 7.6007C4.91933 7.67112 5.0178 7.70523 5.11573 7.70523C5.22686 7.70523 5.33853 7.66067 5.4194 7.57209L8.69437 3.99125C8.76644 3.91258 8.8022 3.81355 8.8022 3.71508C8.8022 3.48952 8.6201 3.30413 8.3907 3.30413C8.27847 3.30413 8.16789 3.34924 8.08592 3.43781L5.08602 6.71773L3.27167 5.10143C3.19245 5.03156 3.09507 4.9969 2.99715 4.9969C2.76884 4.9969 2.58565 5.18119 2.58565 5.4073C2.58565 5.52008 2.63186 5.63231 2.72263 5.71373Z" fill="#776F62"/>
</svg>
