<svg width="11" height="11" viewBox="0 0 11 11" fill="none" xmlns="http://www.w3.org/2000/svg">
<path d="M5.49972 11C8.53538 11 11 8.53538 11 5.49972C11 2.46407 8.53538 0 5.49972 0C2.46462 0 0 2.46407 0 5.49972C0 8.53538 2.46462 11 5.49972 11ZM5.49972 10.1748C2.91958 10.1748 0.825206 8.07987 0.825206 5.49972C0.825206 2.91958 2.91958 0.825206 5.49972 0.825206C8.07987 0.825206 10.1748 2.91958 10.1748 5.49972C10.1748 8.07987 8.07987 10.1748 5.49972 10.1748ZM5.49972 6.5989C5.27197 6.5989 5.08712 6.41405 5.08712 6.1863V3.16054C5.08712 2.93278 5.27197 2.74794 5.49972 2.74794C5.72748 2.74794 5.91233 2.93278 5.91233 3.16054V6.1863C5.91233 6.41405 5.72748 6.5989 5.49972 6.5989ZM5.49862 8.24931C5.8023 8.24931 6.04876 8.00285 6.04876 7.69917C6.04876 7.3955 5.8023 7.14904 5.49862 7.14904C5.19495 7.14904 4.94849 7.3955 4.94849 7.69917C4.94849 8.00285 5.19495 8.24931 5.49862 8.24931Z" fill="#FF1D61"/>
</svg>
