<svg width="7" height="5" viewBox="0 0 7 5" fill="none" xmlns="http://www.w3.org/2000/svg">
<path d="M3.0449 5C3.17954 5 3.3023 4.95215 3.40129 4.85276L6.86932 0.728834C6.95644 0.647853 7 0.548466 7 0.426994C7 0.18773 6.79804 0 6.54461 0C6.41789 0 6.29909 0.0478528 6.21197 0.128834L3.0449 3.97301L0.791988 1.80624C0.700909 1.72526 0.586071 1.6774 0.459353 1.6774C0.201957 1.6774 0 1.86513 0 2.1044C0 2.22219 0.0475193 2.32526 0.134638 2.40624L2.68851 4.85276C2.79146 4.95215 2.91026 5 3.0449 5Z" fill="#F3F2F1"/>
</svg>
