<svg width="9" height="14" viewBox="0 0 9 14" fill="none" xmlns="http://www.w3.org/2000/svg">
<path d="M9 7C9 6.73107 8.88496 6.5017 8.64602 6.29605L1.74336 0.261017C1.55752 0.0870059 1.30973 2.8137e-07 1.02655 2.56613e-07C0.451328 2.06326e-07 2.3567e-07 0.39548 1.90033e-07 0.917514C1.67905e-07 1.17062 0.115044 1.4 0.309734 1.57401L6.53097 7L0.309734 12.426C0.115043 12.6079 -8.52027e-07 12.8373 -8.74154e-07 13.0904C-9.191e-07 13.6045 0.451326 14 1.02655 14C1.30973 14 1.55752 13.913 1.74336 13.739L8.64602 7.70396C8.88496 7.49831 8.99115 7.26893 9 7Z" fill="#776F62"/>
</svg>
