<svg width="12" height="12" viewBox="0 0 12 12" fill="none" xmlns="http://www.w3.org/2000/svg">
<path d="M6 12C9.2817 12 12 9.28751 12 6C12 2.7183 9.2817 0 5.99419 0C2.71249 0 0 2.7183 0 6C0 9.28751 2.7183 12 6 12ZM6 10.8209C3.32817 10.8209 1.1849 8.67183 1.1849 6C1.1849 3.32817 3.32236 1.1849 5.99419 1.1849C8.66602 1.1849 10.8209 3.32817 10.8209 6C10.8209 8.67183 8.67183 10.8209 6 10.8209ZM5.86641 7.15586C6.18587 7.15586 6.38916 6.9758 6.40658 6.73766C6.40658 6.71442 6.40658 6.68538 6.40658 6.66796C6.42401 6.36592 6.63311 6.16263 7.01065 5.91868C7.57986 5.54114 7.9516 5.21007 7.9516 4.5363C7.9516 3.56631 7.08035 3.01452 6.05227 3.01452C5.05905 3.01452 4.37948 3.46757 4.19942 4.01355C4.16457 4.11229 4.14714 4.21104 4.14714 4.31559C4.14714 4.59439 4.36786 4.76863 4.60019 4.76863C4.8151 4.76863 4.9545 4.68151 5.07067 4.52469L5.1636 4.40852C5.35528 4.08906 5.63408 3.92062 5.98257 3.92062C6.45305 3.92062 6.77251 4.19942 6.77251 4.59439C6.77251 4.96031 6.52856 5.14037 6.03485 5.48306C5.62246 5.76767 5.32043 6.0697 5.32043 6.59826V6.66215C5.32043 6.98742 5.51791 7.15586 5.86641 7.15586ZM5.8606 8.93901C6.23233 8.93901 6.54017 8.66602 6.54017 8.3001C6.54017 7.93417 6.23233 7.66699 5.8606 7.66699C5.48306 7.66699 5.18103 7.93998 5.18103 8.3001C5.18103 8.66602 5.48887 8.93901 5.8606 8.93901Z" fill="#ADA9A1"/>
</svg>
