<svg width="15" height="19" viewBox="0 0 15 19" fill="none" xmlns="http://www.w3.org/2000/svg">
<path d="M0 16.5494C0 18.1632 0.800481 19 2.34375 19H9.09375C10.637 19 11.4303 18.1557 11.4303 16.5494V15.1671H12.6562C14.1995 15.1671 15 14.3303 15 12.7165V6.79906C15 5.82029 14.8053 5.19269 14.2356 4.58749L10.637 0.791978C10.0962 0.216673 9.45433 0 8.625 0H5.90625C4.37019 0 3.5625 0.836807 3.5625 2.45065V3.8254H2.34375C0.800481 3.8254 0 4.66968 0 6.27605V16.5494ZM10.7091 8.69681L6.80048 4.58002C6.24519 3.99725 5.77644 3.84035 4.97596 3.83287V2.53284C4.97596 1.84546 5.32933 1.46441 6.02885 1.46441H9.04327V5.03578C9.04327 5.96225 9.51923 6.44042 10.4062 6.44042H13.5865V12.6268C13.5865 13.3217 13.2404 13.7027 12.5337 13.7027H11.4303V10.8038C11.4303 9.79512 11.3149 9.33189 10.7091 8.69681ZM10.226 4.849V2.0696L13.2188 5.2151H10.5793C10.3341 5.2151 10.226 5.1105 10.226 4.849ZM1.41346 16.4597V6.36571C1.41346 5.67833 1.75962 5.28981 2.45913 5.28981H4.67308V9.38419C4.67308 10.4526 5.1851 10.9756 6.20913 10.9756H10.0168V16.4597C10.0168 17.1545 9.67067 17.5356 8.97115 17.5356H2.45913C1.75962 17.5356 1.41346 17.1545 1.41346 16.4597ZM6.34615 9.68305C6.05048 9.68305 5.92067 9.54856 5.92067 9.24223V5.57373L9.82212 9.68305H6.34615Z" fill="#FAFAFA"/>
</svg>
