<svg width="14" height="16" viewBox="0 0 14 16" fill="none" xmlns="http://www.w3.org/2000/svg">
<path d="M3.51145 13.659C3.18956 13.659 2.91402 13.5444 2.6848 13.3152C2.45558 13.086 2.34097 12.8104 2.34097 12.4885V1.17048C2.34097 0.848597 2.45558 0.573048 2.6848 0.343837C2.91402 0.114613 3.18956 0 3.51145 0H12.4173C12.7392 0 13.0147 0.114613 13.2439 0.343837C13.4732 0.573048 13.5878 0.848597 13.5878 1.17048V12.4885C13.5878 12.8104 13.4732 13.086 13.2439 13.3152C13.0147 13.5444 12.7392 13.659 12.4173 13.659H3.51145ZM3.51145 12.4885H12.4173V1.17048H3.51145V12.4885ZM1.17048 16C0.848597 16 0.573048 15.8854 0.343837 15.6562C0.114613 15.427 0 15.1514 0 14.8295V3.28753C0 3.12129 0.0571672 2.98134 0.171501 2.86768C0.285849 2.75403 0.42495 2.6972 0.588804 2.6972C0.752672 2.6972 0.890585 2.75403 1.00254 2.86768C1.1145 2.98134 1.17048 3.12129 1.17048 3.28753V14.8295H10.1069C10.2653 14.8295 10.4016 14.8869 10.5158 15.0018C10.6299 15.1166 10.687 15.2538 10.687 15.4132C10.687 15.5805 10.6299 15.7201 10.5158 15.8321C10.4016 15.944 10.2653 16 10.1069 16H1.17048Z" fill="#776F62"/>
</svg>
