<svg width="25" height="23" viewBox="0 0 25 23" fill="none" xmlns="http://www.w3.org/2000/svg">
<path d="M1.74934 7.65734C1.3691 2.91711 7.23669 -0.6654 12 6.05499C14.5 1.51817 22.4025 0.5 22.4025 7.65734C22.3721 7.9902 22.2616 8.37287 22.0818 8.79441H23.7109C23.8992 8.16027 24 7.53343 24 6.91265C24 0.0987229 15.1245 -1.4198 12 3.95942C8.85118 -1.45989 0 0.123019 0 6.91387C0 7.53343 0.10083 8.16027 0.289127 8.79562H1.96072C1.8526 8.4166 1.7785 8.03879 1.74813 7.65855L1.74934 7.65734Z" fill="#ADA9A1"/>
<path d="M12.6697 19.8686C12.4838 20.0496 12.2421 20.1407 12.0003 20.1407C11.7586 20.1407 11.5181 20.0508 11.331 19.8686C9.16252 17.7633 7.04631 15.8402 5.35406 14.0059H3.39941C5.44153 16.4707 8.21253 19.096 11.1633 21.9617C11.3966 22.1889 11.6991 22.3019 12.0003 22.3019C12.3016 22.3019 12.6041 22.1889 12.8361 21.9617C15.7954 19.0887 18.564 16.4659 20.6025 14.0059H18.4158C16.6264 16.0601 14.5102 18.1739 12.6685 19.8686H12.6697Z" fill="#ADA9A1"/>
<path d="M22.3008 11.03H20.5053C20.4773 11.0276 20.4494 11.0252 20.4202 11.0252H16.5194L15.3435 9.79212C15.0957 9.53215 14.7288 9.45683 14.4105 9.56616C14.2392 9.6184 14.0825 9.72287 13.9659 9.87473L12.1497 12.2558L9.62291 7.10251C9.56217 6.97859 9.4747 6.87533 9.37266 6.79516C9.31799 6.75142 9.25846 6.71133 9.19286 6.67975C8.75067 6.46958 8.22101 6.65788 8.01084 7.10008L6.33318 10.6267H1.01206C0.522485 10.6267 0.124023 11.0239 0.124023 11.5147C0.124023 12.0055 0.52127 12.4028 1.01206 12.4028H6.89685C7.28924 12.4028 7.62089 12.1477 7.73872 11.7954C7.75209 11.7735 7.76423 11.7504 7.77517 11.7261L8.8272 9.51393L11.1767 14.3052C11.3929 14.7449 11.9238 14.9272 12.3648 14.7109C12.4753 14.6563 12.5701 14.5822 12.6454 14.4935C12.6952 14.4522 12.7414 14.4048 12.7814 14.3513L14.7652 11.7516L15.4468 12.4611C15.482 12.5048 15.5197 12.5449 15.5622 12.5813L15.567 12.5874H15.5682C15.7225 12.7186 15.923 12.7988 16.1416 12.7988H17.9371C17.9651 12.8012 17.993 12.8037 18.0222 12.8037H23.2996C23.7891 12.8037 24.1876 12.4064 24.1876 11.9156C24.1876 11.4248 23.7904 11.0276 23.2996 11.0276L22.3008 11.03Z" fill="#ADA9A1"/>
</svg>
