<svg width="24" height="24" viewBox="0 0 24 24" fill="none" xmlns="http://www.w3.org/2000/svg">
<path fill-rule="evenodd" clip-rule="evenodd" d="M19.3301 11.3333L19.3335 11.3333L19.337 11.3333H20.0013C20.3693 11.3333 20.668 11.632 20.668 12V14.6667C20.668 15.0347 20.3693 15.3333 20.0013 15.3333H18.668C18.3 15.3333 18.0013 15.0347 18.0013 14.6667V12C18.0013 11.632 18.3 11.3333 18.668 11.3333H19.3301ZM12.0002 2C16.4155 2 20.0002 5.58476 20.0002 10L20.0013 9.99999C21.1053 9.99999 22.0013 10.896 22.0013 12V14.6667C22.0013 15.7707 21.1053 16.6667 20.0013 16.6667H18.668C17.564 16.6667 16.668 15.7707 16.668 14.6667V12C16.668 10.8964 17.5634 10.0006 18.6669 10C18.6669 6.32068 15.6795 3.33333 12.0002 3.33333C8.32088 3.33333 5.33352 6.32068 5.33352 9.99999C6.43744 10.0001 7.33334 10.896 7.33334 12V14.6667C7.33334 15.6893 6.56446 16.5335 5.57361 16.6523C5.98577 17.5984 7.01996 19.1129 9.45384 19.3116C9.73464 18.5464 10.4699 18 11.332 18H12.6654C13.7694 18 14.6654 18.896 14.6654 20C14.6654 21.104 13.7694 22 12.6654 22H11.332C10.4551 22 9.7094 21.4347 9.43976 20.6488C5.7585 20.4094 4.52355 17.8259 4.15279 16.6667H4C2.896 16.6667 2 15.7707 2 14.6667V12C2 10.896 2.896 9.99999 4 9.99999H4.00018C4.00019 5.58468 7.58488 2 12.0002 2ZM10.6661 20.0311C10.6824 20.3847 10.9745 20.6667 11.332 20.6667H12.6654C13.0334 20.6667 13.3321 20.368 13.3321 20C13.3321 19.632 13.0334 19.3333 12.6654 19.3333H11.332C10.9745 19.3333 10.6824 19.6153 10.6661 19.9689C10.6666 19.9792 10.6668 19.9896 10.6668 20C10.6668 20.0104 10.6666 20.0208 10.6661 20.0311ZM4.66685 11.3333L4.6629 11.3333H4C3.63199 11.3333 3.33334 11.632 3.33334 12V14.6667C3.33334 15.0347 3.63199 15.3333 4 15.3333H5.33334C5.70135 15.3333 6.00001 15.0347 6.00001 14.6667V12C6.00001 11.632 5.70135 11.3333 5.33334 11.3333H4.67079L4.66685 11.3333Z" fill="#C7997B"/>
</svg>
