<svg width="20" height="24" viewBox="0 0 20 24" fill="none" xmlns="http://www.w3.org/2000/svg">
<path d="M17.7334 24H2.26664C1.01539 24 0 23.037 0 21.8504V4.14958C0 2.96295 1.01539 2 2.26664 2H17.7334C18.9846 2 20 2.96295 20 4.14958V21.8504C20 23.037 18.9846 24 17.7334 24ZM18.4989 4.72583C18.4989 4.13252 17.9912 3.65104 17.3656 3.65104H2.63242C2.0068 3.65104 1.4991 4.13252 1.4991 4.72583V21.2761C1.4991 21.8694 2.0068 22.3509 2.63242 22.3509H17.3656C17.9912 22.3509 18.4989 21.8694 18.4989 21.2761V4.72583Z" fill="#ADA9A1"/>
<path d="M10.0001 10.2741C8.75715 8.1551 5.26318 8.77387 5.26318 11.4286C5.26318 13.1761 7.32138 15.0535 9.66995 17.3113C9.76185 17.4 9.88122 17.4441 10.0001 17.4441C10.119 17.4441 10.2384 17.4 10.3303 17.3113C12.6879 15.045 14.7371 13.1765 14.7371 11.4286C14.7371 8.76495 11.2336 8.17105 10.0001 10.2741Z" fill="#ADA9A1"/>
<rect x="4" width="2" height="6" rx="1" fill="#ADA9A1"/>
<rect x="14" width="2" height="6" rx="1" fill="#ADA9A1"/>
</svg>
