<svg width="11" height="8" viewBox="0 0 11 8" fill="none" xmlns="http://www.w3.org/2000/svg">
<path opacity="0.7" d="M8.15852 7.848C7.57585 7.848 7.08185 7.63267 6.67652 7.202C6.27118 6.746 6.06852 6.138 6.06852 5.378C6.06852 4.28867 6.23318 3.402 6.56252 2.718C6.89185 2.00866 7.25918 1.45133 7.66452 1.046C8.12052 0.589999 8.66518 0.247999 9.29852 0.0199986L9.67852 0.628C9.24785 0.830665 8.86785 1.07133 8.53852 1.35C8.25985 1.60333 7.99385 1.90733 7.74052 2.262C7.51252 2.59133 7.39852 2.99667 7.39852 3.478C7.39852 3.65533 7.42385 3.79466 7.47452 3.896C7.49985 3.972 7.53785 4.02267 7.58852 4.048C7.63918 4.02267 7.71518 3.99733 7.81652 3.972C7.89252 3.94667 7.96852 3.92133 8.04452 3.896C8.14585 3.87067 8.24718 3.858 8.34852 3.858C8.93118 3.858 9.38718 4.03533 9.71652 4.39C10.0712 4.71933 10.2485 5.17533 10.2485 5.758C10.2485 6.34067 10.0458 6.83467 9.64052 7.24C9.23518 7.64533 8.74118 7.848 8.15852 7.848ZM2.83852 7.848C2.25585 7.848 1.76185 7.63267 1.35652 7.202C0.951182 6.746 0.748516 6.138 0.748516 5.378C0.748516 4.28867 0.913182 3.402 1.24252 2.718C1.57185 2.00866 1.93918 1.45133 2.34452 1.046C2.80052 0.589999 3.34518 0.247999 3.97852 0.0199986L4.35852 0.628C3.92785 0.830665 3.54785 1.07133 3.21852 1.35C2.93985 1.60333 2.67385 1.90733 2.42052 2.262C2.19252 2.59133 2.07852 2.99667 2.07852 3.478C2.07852 3.65533 2.10385 3.79466 2.15452 3.896C2.17985 3.972 2.21785 4.02267 2.26852 4.048C2.31918 4.02267 2.39518 3.99733 2.49652 3.972C2.57252 3.94667 2.64852 3.92133 2.72452 3.896C2.82585 3.87067 2.92718 3.858 3.02852 3.858C3.61118 3.858 4.06718 4.03533 4.39652 4.39C4.75118 4.71933 4.92852 5.17533 4.92852 5.758C4.92852 6.34067 4.72585 6.83467 4.32052 7.24C3.91518 7.64533 3.42118 7.848 2.83852 7.848Z" fill="#E5C69E"/>
</svg>
