<svg width="11" height="8" viewBox="0 0 11 8" fill="none" xmlns="http://www.w3.org/2000/svg">
<path opacity="0.7" d="M2.83852 0.0199986C3.42118 0.0199986 3.91518 0.247999 4.32052 0.703999C4.72585 1.13467 4.92852 1.73 4.92852 2.49C4.92852 3.60467 4.75118 4.504 4.39652 5.188C4.06718 5.872 3.69985 6.41667 3.29452 6.822C2.83852 7.278 2.30652 7.62 1.69852 7.848L1.31852 7.24C1.74918 7.03733 2.12918 6.79667 2.45852 6.518C2.73718 6.29 2.99052 5.99867 3.21852 5.644C3.47185 5.28933 3.59852 4.87133 3.59852 4.39C3.59852 4.28867 3.58585 4.21267 3.56052 4.162C3.53518 4.086 3.50985 4.02267 3.48452 3.972L3.40852 3.82C3.35785 3.87067 3.28185 3.90866 3.18052 3.934C2.97785 3.98467 2.80052 4.01 2.64852 4.01C2.06585 4.01 1.59718 3.84533 1.24252 3.516C0.913182 3.16133 0.748516 2.69267 0.748516 2.11C0.748516 1.52733 0.951182 1.03333 1.35652 0.628C1.76185 0.222666 2.25585 0.0199986 2.83852 0.0199986ZM8.15852 0.0199986C8.74118 0.0199986 9.23518 0.247999 9.64052 0.703999C10.0458 1.13467 10.2485 1.73 10.2485 2.49C10.2485 3.60467 10.0712 4.504 9.71652 5.188C9.38718 5.872 9.01985 6.41667 8.61452 6.822C8.15852 7.278 7.62652 7.62 7.01852 7.848L6.63852 7.24C7.06918 7.03733 7.44918 6.79667 7.77852 6.518C8.05718 6.29 8.31052 5.99867 8.53852 5.644C8.79185 5.28933 8.91852 4.87133 8.91852 4.39C8.91852 4.28867 8.90585 4.21267 8.88052 4.162C8.85518 4.086 8.82985 4.02267 8.80452 3.972L8.72852 3.82C8.67785 3.87067 8.60185 3.90866 8.50052 3.934C8.29785 3.98467 8.12052 4.01 7.96852 4.01C7.38585 4.01 6.91718 3.84533 6.56252 3.516C6.23318 3.16133 6.06852 2.69267 6.06852 2.11C6.06852 1.52733 6.27118 1.03333 6.67652 0.628C7.08185 0.222666 7.57585 0.0199986 8.15852 0.0199986Z" fill="#E5C69E"/>
</svg>
