<svg width="24" height="24" viewBox="0 0 24 24" fill="none" xmlns="http://www.w3.org/2000/svg">
<path d="M14 22.75C14.4142 22.75 14.75 22.4142 14.75 22C14.75 21.5858 14.4142 21.25 14 21.25V22.75ZM5.06107 21.0451L5.50191 20.4383L5.06107 21.0451ZM3.95491 19.9389L4.56168 19.4981L3.95491 19.9389ZM20.25 14C20.25 14.4142 20.5858 14.75 21 14.75C21.4142 14.75 21.75 14.4142 21.75 14H20.25ZM18.9389 2.95491L19.3798 2.34815L18.9389 2.95491ZM20.0451 4.06107L19.4383 4.50191L20.0451 4.06107ZM5.06107 2.95491L5.50191 3.56168L5.06107 2.95491ZM3.95491 4.06107L4.56168 4.50191L3.95491 4.06107ZM8 11.25C7.58579 11.25 7.25 11.5858 7.25 12C7.25 12.4142 7.58579 12.75 8 12.75V11.25ZM11 12.75C11.4142 12.75 11.75 12.4142 11.75 12C11.75 11.5858 11.4142 11.25 11 11.25V12.75ZM18.4405 2.65135L18.1028 3.32103L18.4405 2.65135ZM6.07222 2.43619L6.31685 3.14517L6.07222 2.43619ZM20.25 11V14H21.75V11H20.25ZM3.75 13V11H2.25V13H3.75ZM14 21.25C12.1171 21.25 10.2412 21.2496 8.673 21.1327C7.88979 21.0743 7.20456 20.9883 6.64704 20.8649C6.07512 20.7383 5.70599 20.5866 5.50191 20.4383L4.62023 21.6518C5.07332 21.981 5.68143 22.1874 6.32287 22.3294C6.97872 22.4746 7.74301 22.5676 8.56152 22.6286C10.1968 22.7504 12.1332 22.75 14 22.75V21.25ZM2.25 13C2.25 14.8582 2.24897 16.312 2.37373 17.4635C2.50001 18.6291 2.76232 19.5734 3.34815 20.3798L4.56168 19.4981C4.19259 18.9901 3.97745 18.3399 3.865 17.302C3.75103 16.25 3.75 14.8916 3.75 13H2.25ZM5.50191 20.4383C5.14111 20.1762 4.82382 19.8589 4.56168 19.4981L3.34815 20.3798C3.70281 20.8679 4.13209 21.2972 4.62023 21.6518L5.50191 20.4383ZM21.75 11C21.75 9.14184 21.751 7.68798 21.6263 6.53648C21.5 5.37094 21.2377 4.42656 20.6518 3.62023L19.4383 4.50191C19.8074 5.00992 20.0225 5.66013 20.135 6.69804C20.249 7.74999 20.25 9.10843 20.25 11H21.75ZM18.4981 3.56168C18.8589 3.82382 19.1762 4.14111 19.4383 4.50191L20.6518 3.62023C20.2972 3.13209 19.8679 2.70281 19.3798 2.34815L18.4981 3.56168ZM3.75 11C3.75 9.10843 3.75103 7.74999 3.865 6.69804C3.97745 5.66013 4.19259 5.00992 4.56168 4.50191L3.34815 3.62023C2.76232 4.42656 2.50001 5.37094 2.37373 6.53648C2.24897 7.68798 2.25 9.14184 2.25 11H3.75ZM4.62023 2.34815C4.13209 2.70281 3.70281 3.13209 3.34815 3.62023L4.56168 4.50191C4.82382 4.14111 5.14111 3.82382 5.50191 3.56168L4.62023 2.34815ZM8 12.75H11V11.25H8V12.75ZM12 2.75C13.6617 2.75 14.9149 2.75053 15.9149 2.82911C16.9124 2.9075 17.5844 3.05963 18.1028 3.32103L18.7782 1.98168C18.0049 1.59173 17.107 1.41817 16.0324 1.33372C14.9603 1.24947 13.6391 1.25 12 1.25V2.75ZM18.1028 3.32103C18.2431 3.3918 18.374 3.4715 18.4981 3.56168L19.3798 2.34815C19.1892 2.20967 18.9892 2.08809 18.7782 1.98168L18.1028 3.32103ZM12 1.25C10.5637 1.25 9.37369 1.24973 8.38484 1.30572C7.39671 1.36167 6.55633 1.47576 5.82759 1.7272L6.31685 3.14517C6.85227 2.96043 7.53187 2.85642 8.46964 2.80332C9.40668 2.75027 10.5485 2.75 12 2.75V1.25ZM5.82759 1.7272C5.38699 1.87923 4.98789 2.08103 4.62023 2.34815L5.50191 3.56168C5.73848 3.3898 6.00284 3.25352 6.31685 3.14517L5.82759 1.7272Z" fill="#C7997B"/>
<path d="M8 8.5H16" stroke="#C7997B" stroke-width="1.5" stroke-linecap="round"/>
<path d="M14 18H20" stroke="#C7997B" stroke-width="1.5" stroke-linecap="round"/>
<path d="M17 15L17 21" stroke="#C7997B" stroke-width="1.5" stroke-linecap="round"/>
</svg>
