<svg width="296" height="197" viewBox="0 0 296 197" fill="none" xmlns="http://www.w3.org/2000/svg">
<path d="M89.9313 107.075C89.2739 106.416 88.4908 105.892 87.6276 105.536C86.7645 105.18 85.8385 104.998 84.9037 105C83.9688 104.998 83.0429 105.18 82.1797 105.536C81.3166 105.892 80.5335 106.416 79.876 107.075L79.475 107.487L79.0739 107.089C77.7443 105.77 75.9409 105.029 74.0606 105.029C72.1803 105.029 70.3769 105.77 69.0473 107.089C67.735 108.418 67 110.204 67 112.064C67 113.924 67.735 115.71 69.0473 117.038L78.7445 126.688C78.9459 126.888 79.2189 127 79.5036 127C79.7883 127 80.0614 126.888 80.2628 126.688L89.96 117.038C91.2727 115.705 92.0053 113.914 92 112.051C91.9946 110.187 91.2517 108.4 89.9313 107.075Z" fill="#DAA676"/>
<path d="M170.428 64.6034C169.928 64.0939 169.333 63.6897 168.677 63.4144C168.021 63.1391 167.317 62.9982 166.607 63C165.896 62.9982 165.193 63.1391 164.537 63.4144C163.881 63.6897 163.285 64.0939 162.786 64.6034L162.481 64.9219L162.176 64.6144C161.166 63.595 159.795 63.0224 158.366 63.0224C156.937 63.0224 155.566 63.595 154.556 64.6144C153.559 65.6409 153 67.0209 153 68.4583C153 69.8956 153.559 71.2756 154.556 72.3021L161.926 79.7591C162.079 79.9134 162.286 80 162.503 80C162.719 80 162.927 79.9134 163.08 79.7591L170.45 72.3021C171.447 71.2723 172.004 69.8883 172 68.4483C171.996 67.0083 171.431 65.6275 170.428 64.6034Z" fill="#DAA676"/>
<path d="M286.345 119.698C285.819 119.158 285.193 118.73 284.502 118.439C283.812 118.147 283.071 117.998 282.323 118C281.575 117.998 280.834 118.147 280.144 118.439C279.453 118.73 278.827 119.158 278.301 119.698L277.98 120.035L277.659 119.709C276.595 118.63 275.153 118.024 273.648 118.024C272.144 118.024 270.702 118.63 269.638 119.709C268.588 120.796 268 122.257 268 123.779C268 125.301 268.588 126.762 269.638 127.849L277.396 135.745C277.557 135.908 277.775 136 278.003 136C278.231 136 278.449 135.908 278.61 135.745L286.368 127.849C287.418 126.759 288.004 125.293 288 123.769C287.996 122.244 287.401 120.782 286.345 119.698Z" fill="#DAA676"/>
<path d="M16.5106 24.5091C16.0372 24.0295 15.4734 23.6491 14.8519 23.39C14.2304 23.1309 13.5637 22.9983 12.8907 23C12.2176 22.9983 11.5509 23.1309 10.9294 23.39C10.3079 23.6491 9.7441 24.0295 9.27075 24.5091L8.98199 24.8089L8.69322 24.5195C7.73586 23.56 6.43747 23.0211 5.08363 23.0211C3.72979 23.0211 2.4314 23.56 1.47404 24.5195C0.529218 25.4855 0 26.7844 0 28.1372C0 29.49 0.529218 30.7888 1.47404 31.7549L8.45602 38.7733C8.60104 38.9185 8.79764 39 9.00261 39C9.20759 39 9.40418 38.9185 9.54921 38.7733L16.5312 31.7549C17.4764 30.7857 18.0038 29.4831 18 28.1278C17.9961 26.7725 17.4612 25.473 16.5106 24.5091Z" fill="#DAA676"/>
<path opacity="0.3" d="M294.108 1.13184C293.761 0.772136 293.347 0.486818 292.891 0.292504C292.436 0.098189 291.947 -0.00123856 291.453 1.16451e-05C290.96 -0.00123856 290.471 0.098189 290.015 0.292504C289.559 0.486818 289.146 0.772136 288.799 1.13184L288.587 1.35666L288.375 1.13959C287.673 0.420032 286.721 0.015793 285.728 0.015793C284.735 0.015793 283.783 0.420032 283.081 1.13959C282.388 1.86415 282 2.8383 282 3.85289C282 4.86747 282.388 5.84162 283.081 6.56618L288.201 11.83C288.307 11.9388 288.452 12 288.602 12C288.752 12 288.896 11.9388 289.003 11.83L294.123 6.56618C294.816 5.83924 295.203 4.86231 295.2 3.84584C295.197 2.82937 294.805 1.85471 294.108 1.13184Z" fill="#DAA676"/>
<path opacity="0.7" d="M46.5106 146.603C46.0372 146.094 45.4734 145.69 44.8519 145.414C44.2304 145.139 43.5637 144.998 42.8907 145C42.2176 144.998 41.5509 145.139 40.9294 145.414C40.3079 145.69 39.7441 146.094 39.2708 146.603L38.982 146.922L38.6932 146.614C37.7359 145.595 36.4375 145.022 35.0836 145.022C33.7298 145.022 32.4314 145.595 31.474 146.614C30.5292 147.641 30 149.021 30 150.458C30 151.896 30.5292 153.276 31.474 154.302L38.456 161.759C38.601 161.913 38.7976 162 39.0026 162C39.2076 162 39.4042 161.913 39.5492 161.759L46.5312 154.302C47.4764 153.272 48.0038 151.888 48 150.448C47.9961 149.008 47.4612 147.628 46.5106 146.603Z" fill="#DAA676"/>
<path opacity="0.3" d="M257.108 186.132C256.761 185.772 256.347 185.487 255.891 185.293C255.436 185.098 254.947 184.999 254.453 185C253.96 184.999 253.471 185.098 253.015 185.293C252.559 185.487 252.146 185.772 251.799 186.132L251.587 186.357L251.375 186.14C250.673 185.42 249.721 185.016 248.728 185.016C247.735 185.016 246.783 185.42 246.081 186.14C245.388 186.864 245 187.838 245 188.853C245 189.867 245.388 190.842 246.081 191.566L251.201 196.83C251.307 196.939 251.452 197 251.602 197C251.752 197 251.896 196.939 252.003 196.83L257.123 191.566C257.816 190.839 258.203 189.862 258.2 188.846C258.197 187.829 257.805 186.855 257.108 186.132Z" fill="#DAA676"/>
<path opacity="0.5" d="M201.108 152.132C200.761 151.772 200.347 151.487 199.891 151.293C199.436 151.098 198.947 150.999 198.453 151C197.96 150.999 197.471 151.098 197.015 151.293C196.559 151.487 196.146 151.772 195.799 152.132L195.587 152.357L195.375 152.14C194.673 151.42 193.721 151.016 192.728 151.016C191.735 151.016 190.783 151.42 190.081 152.14C189.388 152.864 189 153.838 189 154.853C189 155.867 189.388 156.842 190.081 157.566L195.201 162.83C195.307 162.939 195.452 163 195.602 163C195.752 163 195.896 162.939 196.003 162.83L201.123 157.566C201.816 156.839 202.203 155.862 202.2 154.846C202.197 153.829 201.805 152.855 201.108 152.132Z" fill="#DAA676"/>
</svg>
