<svg width="24" height="21" viewBox="0 0 24 21" fill="none" xmlns="http://www.w3.org/2000/svg">
<path d="M22.0141 1.98072C21.3829 1.35124 20.6312 0.851932 19.8025 0.511881C18.9739 0.171831 18.085 -0.00216748 17.1875 2.0379e-05C16.2901 -0.00216748 15.4012 0.171831 14.5725 0.511881C13.7439 0.851932 12.9921 1.35124 12.361 1.98072L11.976 2.37415L11.591 1.99429C10.3145 0.735056 8.58329 0.0276378 6.77817 0.0276378C4.97305 0.0276378 3.24186 0.735056 1.96538 1.99429C0.705625 3.26227 0 4.96702 0 6.74255C0 8.51808 0.705625 10.2228 1.96538 11.4908L11.2747 20.7024C11.4681 20.893 11.7302 21 12.0035 21C12.2768 21 12.5389 20.893 12.7323 20.7024L22.0416 11.4908C23.3018 10.2187 24.0051 8.50904 24 6.73022C23.9948 4.95139 23.2817 3.24575 22.0141 1.98072Z" fill="white"/>
</svg>
