<svg width="24" height="24" viewBox="0 0 24 24" fill="none" xmlns="http://www.w3.org/2000/svg">
<path d="M21 12.0002C21 11.4319 20.7812 10.8869 20.3917 10.485C20.0022 10.0832 19.4739 9.85742 18.9231 9.85742H12.6923V9.05387C13.2865 8.89463 13.8128 8.53653 14.1886 8.03568C14.5644 7.53482 14.7687 6.91949 14.7692 6.28608C14.7692 3.78614 12.4812 2.18707 12.3842 2.1201C12.2705 2.04179 12.1368 2 12 2C11.8632 2 11.7295 2.04179 11.6158 2.1201C11.5188 2.18707 9.23077 3.78614 9.23077 6.28608C9.23135 6.91949 9.43555 7.53482 9.81139 8.03568C10.1872 8.53653 10.7135 8.89463 11.3077 9.05387V9.85742H5.07692C4.52609 9.85742 3.99782 10.0832 3.60832 10.485C3.21882 10.8869 3 11.4319 3 12.0002V14.0832C3.00071 14.8624 3.24333 15.6209 3.69231 16.2475V19.8572C3.69231 20.4255 3.91113 20.9705 4.30062 21.3724C4.69012 21.7742 5.2184 22 5.76923 22H18.2308C18.7816 22 19.3099 21.7742 19.6994 21.3724C20.0889 20.9705 20.3077 20.4255 20.3077 19.8572V16.2475C20.7567 15.6209 20.9993 14.8624 21 14.0832V12.0002ZM10.6154 6.28608C10.6154 5.0745 11.4808 4.1022 12 3.62632C12.5192 4.1022 13.3846 5.0745 13.3846 6.28608C13.3846 6.66495 13.2387 7.0283 12.9791 7.29621C12.7194 7.56411 12.3672 7.71462 12 7.71462C11.6328 7.71462 11.2806 7.56411 11.0209 7.29621C10.7613 7.0283 10.6154 6.66495 10.6154 6.28608ZM4.38462 12.0002C4.38462 11.8108 4.45755 11.6291 4.58739 11.4952C4.71722 11.3612 4.89331 11.286 5.07692 11.286H18.9231C19.1067 11.286 19.2828 11.3612 19.4126 11.4952C19.5424 11.6291 19.6154 11.8108 19.6154 12.0002V14.0832C19.6154 15.2662 18.7102 16.2537 17.5973 16.285C17.3197 16.2931 17.0434 16.2437 16.7846 16.1397C16.5259 16.0357 16.2899 15.8792 16.0908 15.6795C15.8917 15.4798 15.7334 15.241 15.6253 14.9771C15.5172 14.7131 15.4615 14.4295 15.4615 14.143C15.4615 13.9536 15.3886 13.7719 15.2588 13.638C15.1289 13.504 14.9528 13.4288 14.7692 13.4288C14.5856 13.4288 14.4095 13.504 14.2797 13.638C14.1499 13.7719 14.0769 13.9536 14.0769 14.143C14.0769 14.7113 13.8581 15.2564 13.4686 15.6582C13.0791 16.0601 12.5508 16.2858 12 16.2858C11.4492 16.2858 10.9209 16.0601 10.5314 15.6582C10.1419 15.2564 9.92308 14.7113 9.92308 14.143C9.92308 13.9536 9.85014 13.7719 9.7203 13.638C9.59047 13.504 9.41438 13.4288 9.23077 13.4288C9.04716 13.4288 8.87107 13.504 8.74123 13.638C8.6114 13.7719 8.53846 13.9536 8.53846 14.143C8.53857 14.4296 8.48297 14.7133 8.37493 14.9773C8.26689 15.2413 8.10863 15.4803 7.90949 15.6801C7.71035 15.8799 7.4744 16.0365 7.21558 16.1405C6.95676 16.2445 6.68035 16.294 6.40269 16.2858C5.28981 16.2537 4.38462 15.2662 4.38462 14.0832V12.0002ZM18.2308 20.5715H5.76923C5.58562 20.5715 5.40953 20.4962 5.2797 20.3623C5.14986 20.2283 5.07692 20.0466 5.07692 19.8572V17.4072C5.48217 17.5967 5.91989 17.7011 6.36462 17.7144C6.8273 17.7292 7.28811 17.6474 7.71938 17.4739C8.15064 17.3004 8.54346 17.0387 8.87423 16.7046C9.00338 16.5747 9.12258 16.4347 9.23077 16.2858C9.5532 16.7294 9.9713 17.0894 10.452 17.3373C10.9326 17.5853 11.4626 17.7144 12 17.7144C12.5374 17.7144 13.0674 17.5853 13.548 17.3373C14.0287 17.0894 14.4468 16.7294 14.7692 16.2858C14.8778 16.4341 14.9973 16.5735 15.1266 16.7028C15.7707 17.3536 16.637 17.717 17.5385 17.7144H17.6371C18.0813 17.7009 18.5184 17.5965 18.9231 17.4072V19.8572C18.9231 20.0466 18.8501 20.2283 18.7203 20.3623C18.5905 20.4962 18.4144 20.5715 18.2308 20.5715Z" fill="#C7997B"/>
</svg>
