<svg width="32" height="32" viewBox="0 0 32 32" fill="none" xmlns="http://www.w3.org/2000/svg">
<path d="M16.0039 21.3333C18.213 21.3333 20.0039 19.5425 20.0039 17.3333C20.0039 15.1242 18.213 13.3333 16.0039 13.3333C13.7948 13.3333 12.0039 15.1242 12.0039 17.3333C12.0039 19.5425 13.7948 21.3333 16.0039 21.3333Z" stroke="#A57555" stroke-width="1.5" stroke-linecap="round"/>
<path d="M12.9804 27.2H19.0243C23.2688 27.2 25.3918 27.2 26.9163 26.2527C27.5742 25.8441 28.1407 25.3168 28.5837 24.7009C29.6023 23.2831 29.6023 21.3072 29.6023 17.3581C29.6023 13.4076 29.6023 11.4331 28.5837 10.0153C28.1407 9.39934 27.5742 8.87205 26.9163 8.46347C25.9371 7.85383 24.7104 7.63601 22.8323 7.55867C21.936 7.55867 21.1649 6.92712 20.9895 6.10868C20.8554 5.50918 20.507 4.97193 20.0033 4.58773C19.4995 4.20353 18.8712 3.99595 18.2246 4.00006H13.7801C12.4364 4.00006 11.2791 4.88295 11.0152 6.10868C10.8398 6.92712 10.0687 7.55867 9.17242 7.55867C7.29562 7.63601 6.0689 7.85512 5.08834 8.46347C4.43095 8.87213 3.86485 9.39943 3.42234 10.0153C2.40234 11.4331 2.40234 13.4076 2.40234 17.3581C2.40234 21.3072 2.40234 23.2818 3.42098 24.7009C3.86162 25.3144 4.42738 25.8415 5.08834 26.2527C6.6129 27.2 8.73586 27.2 12.9804 27.2Z" stroke="#A57555" stroke-width="1.5" stroke-linecap="round"/>
</svg>
