<svg width="80" height="80" viewBox="0 0 80 80" fill="none" xmlns="http://www.w3.org/2000/svg">
<path opacity="0.6" d="M40 0L74.641 20V60L40 80L5.35898 60V20L40 0Z" fill="url(#paint0_linear_496_2202)"/>
<path fill-rule="evenodd" clip-rule="evenodd" d="M25 26C25 25.4477 25.4477 25 26 25H32C32.5523 25 33 25.4477 33 26C33 26.5523 32.5523 27 32 27H27V32C27 32.5523 26.5523 33 26 33C25.4477 33 25 32.5523 25 32V26ZM42.2449 48.1999H37.7642C34.6174 48.1999 33.0435 48.1999 31.9132 47.4976C31.4232 47.1927 31.0037 46.8019 30.6771 46.3471C29.9219 45.295 29.9219 43.8311 29.9219 40.9033C29.9219 37.9746 29.9219 36.5107 30.6781 35.4596C31.0061 35.003 31.4258 34.6121 31.9132 34.3091C32.6402 33.8581 33.5496 33.6956 34.941 33.6383C35.6055 33.6383 36.1772 33.1701 36.3072 32.5633C36.5028 31.6546 37.3609 31 38.3571 31H41.6521C42.1315 30.997 42.5973 31.1509 42.9707 31.4357C43.3442 31.7206 43.6025 32.1189 43.7019 32.5633C43.832 33.1701 44.4036 33.6383 45.0681 33.6383C46.4605 33.6956 47.37 33.8571 48.0959 34.3091C48.5836 34.612 49.0037 35.0029 49.3321 35.4596C50.0873 36.5107 50.0873 37.9746 50.0873 40.9033C50.0873 43.8311 50.0873 45.296 49.3321 46.3471C49.0036 46.8037 48.5836 47.1946 48.0959 47.4976C46.9657 48.1999 45.3917 48.1999 42.2449 48.1999ZM42.9698 40.8849C42.9698 42.5227 41.6421 43.8504 40.0043 43.8504C38.3665 43.8504 37.0388 42.5227 37.0388 40.8849C37.0388 39.2471 38.3665 37.9194 40.0043 37.9194C41.6421 37.9194 42.9698 39.2471 42.9698 40.8849ZM54 55C54.5523 55 55 54.5523 55 54V48C55 47.4477 54.5523 47 54 47C53.4477 47 53 47.4477 53 48V53H48C47.4477 53 47 53.4477 47 54C47 54.5523 47.4477 55 48 55H54ZM55 26C55 25.4477 54.5523 25 54 25H48C47.4477 25 47 25.4477 47 26C47 26.5523 47.4477 27 48 27H53V32C53 32.5523 53.4477 33 54 33C54.5523 33 55 32.5523 55 32V26ZM26 55C25.4477 55 25 54.5523 25 54V48C25 47.4477 25.4477 47 26 47C26.5523 47 27 47.4477 27 48L27 53H32C32.5523 53 33 53.4477 33 54C33 54.5523 32.5523 55 32 55H26Z" fill="#C7997B"/>
<defs>
<linearGradient id="paint0_linear_496_2202" x1="40" y1="0" x2="40" y2="80" gradientUnits="userSpaceOnUse">
<stop stop-color="#FF9C5B"/>
<stop offset="0.854167" stop-color="#C7FFF4"/>
</linearGradient>
</defs>
</svg>
