<svg width="24" height="24" viewBox="0 0 24 24" fill="none" xmlns="http://www.w3.org/2000/svg">
<circle cx="12" cy="12" r="8.5" fill="#555555"/>
<path fill-rule="evenodd" clip-rule="evenodd" d="M9.66623 8.66572C9.38961 8.3891 8.94112 8.3891 8.6645 8.66572C8.38788 8.94234 8.38788 9.39083 8.6645 9.66745L10.997 11.9999L8.6645 14.3324C8.38788 14.609 8.38788 15.0575 8.6645 15.3341C8.94112 15.6107 9.38961 15.6107 9.66623 15.3341L11.9987 13.0017L14.3312 15.3341C14.6078 15.6107 15.0563 15.6107 15.3329 15.3341C15.6095 15.0575 15.6095 14.609 15.3329 14.3324L13.0004 11.9999L15.3329 9.66745C15.6095 9.39083 15.6095 8.94234 15.3329 8.66572C15.0563 8.3891 14.6078 8.3891 14.3312 8.66572L11.9987 10.9982L9.66623 8.66572Z" fill="white"/>
</svg>
