<svg width="32" height="32" viewBox="0 0 32 32" fill="none" xmlns="http://www.w3.org/2000/svg">
<path d="M6.02849 26.0023C6.26961 27.2984 7.3848 28.2327 8.71097 28.2327C8.86167 28.2327 9.01237 28.2327 9.19321 28.2026L19.4107 26.3942C20.1341 26.2736 20.7369 25.8818 21.1589 25.279C21.5808 24.6762 21.7315 23.9528 21.611 23.2596L18.597 6.23037C18.386 4.93435 17.2708 4 15.9446 4C15.7939 4 15.6432 4 15.4624 4.03014L5.24485 5.83855C3.76798 6.10981 2.77335 7.49626 3.04461 8.97313L6.02849 26.0023Z" fill="#111111"/>
<path fill-rule="evenodd" clip-rule="evenodd" d="M20.9771 27.4171L21.202 27.4571C22.8333 27.7471 24.3908 26.6597 24.6807 25.0284L27.5609 8.82576C27.8508 7.19447 26.7635 5.63699 25.1322 5.34702L19.4211 4.33184C19.7462 4.81252 19.9744 5.369 20.0752 5.97806L23.0884 23.0026C23.2758 24.0802 23.0403 25.2063 22.3873 26.1392C22.0131 26.6738 21.5351 27.1091 20.9771 27.4171ZM17.3118 26.7656L10.952 25.6351C9.32075 25.3451 8.2334 23.7876 8.52337 22.1564L11.4035 5.95368C11.4912 5.46046 11.6947 5.01695 11.9812 4.64621L15.462 4.03014C15.6428 4 15.7935 4 15.9442 4C17.2704 4 18.3856 4.93435 18.5965 6.23037L21.6106 23.2596C21.7311 23.9528 21.5804 24.6762 21.1585 25.279C20.7365 25.8818 20.1337 26.2736 19.4103 26.3942L17.3118 26.7656Z" fill="#111111"/>
<path fill-rule="evenodd" clip-rule="evenodd" d="M16.1556 13.5545C16.668 16.5383 13.0813 20.4264 13.0813 20.4264C13.0813 20.4264 8.37942 18.0152 7.8369 15.0313C7.59578 13.675 8.46984 12.379 9.76587 12.168C10.1547 12.087 10.5348 12.1105 10.8875 12.2198C11.1909 12.3138 11.4741 12.4713 11.725 12.6804C11.869 12.4186 12.0584 12.1909 12.286 12.0072C12.5823 11.7679 12.9433 11.6033 13.3526 11.5351C14.6787 11.2939 15.9145 12.2283 16.1556 13.5545Z" fill="white"/>
</svg>
