<svg width="32" height="32" viewBox="0 0 32 32" fill="none" xmlns="http://www.w3.org/2000/svg">
<path d="M22.1751 5.06669C20.8818 5.06341 19.6143 5.43902 18.5208 6.14961C17.5492 6.78104 16.7506 7.65379 16.1968 8.68449C16.1154 8.83591 15.8875 8.83475 15.8077 8.68249C15.1391 7.40644 14.1001 6.37158 12.8307 5.72588C11.4322 5.01448 9.83867 4.81859 8.31659 5.17096C6.79451 5.52333 5.43611 6.4026 4.46848 7.66179C3.50085 8.92098 2.98262 10.4838 3.00044 12.0889C3.00044 17.4665 9.94687 24.0949 13.6842 27.272C15.0328 28.4184 16.9676 28.4184 18.3163 27.2719C22.0536 24.0949 29 17.4665 29 12.0889C29 10.2265 28.281 8.44037 27.001 7.12345C25.7211 5.80653 23.9852 5.06669 22.1751 5.06669Z" stroke="#A57454" stroke-width="1.5"/>
<path d="M25 12C25 10.3431 23.6569 9 22 9" stroke="#A57454" stroke-width="1.5" stroke-linecap="round"/>
</svg>
