<svg width="32" height="32" viewBox="0 0 32 32" fill="none" xmlns="http://www.w3.org/2000/svg">
<path d="M24.8352 10.3001L18.5055 5.86661C16.7802 4.65648 14.1319 4.72248 12.4725 6.00963L6.96703 10.3111C5.86813 11.1692 5 12.9294 5 14.3156V21.9064C5 24.7117 7.27472 27 10.0769 27H21.9231C24.7253 27 27 24.7227 27 21.9174V14.4586C27 12.9734 26.044 11.1472 24.8352 10.3001ZM16.8242 22.5995C16.8242 23.0506 16.4505 23.4246 16 23.4246C15.5494 23.4246 15.1758 23.0506 15.1758 22.5995V19.2991C15.1758 18.8481 15.5494 18.474 16 18.474C16.4505 18.474 16.8242 18.8481 16.8242 19.2991V22.5995Z" fill="black"/>
</svg>
