<svg width="80" height="80" viewBox="0 0 80 80" fill="none" xmlns="http://www.w3.org/2000/svg">
<path opacity="0.6" d="M40 0L74.641 20V60L40 80L5.35898 60V20L40 0Z" fill="url(#paint0_linear_496_2230)"/>
<path fill-rule="evenodd" clip-rule="evenodd" d="M52.0021 26C51.4498 26 51.0021 26.4477 51.0021 27V30.0019H48.0021C47.4498 30.0019 47.0021 30.4497 47.0021 31.0019C47.0021 31.5542 47.4498 32.0019 48.0021 32.0019H51.0021V35.0037C51.0021 35.5559 51.4498 36.0037 52.0021 36.0037C52.5544 36.0037 53.0021 35.5559 53.0021 35.0037V32.0019H56.0057C56.558 32.0019 57.0057 31.5542 57.0057 31.0019C57.0057 30.4497 56.558 30.0019 56.0057 30.0019H53.0021V27C53.0021 26.4477 52.5544 26 52.0021 26ZM39 40C41.7614 40 44 37.7614 44 35C44 32.2386 41.7614 30 39 30C36.2386 30 34 32.2386 34 35C34 37.7614 36.2386 40 39 40ZM39 42C33.201 42 28.5 46.701 28.5 52.5V53H49.5V52.5C49.5 46.701 44.799 42 39 42Z" fill="#C7997B"/>
<defs>
<linearGradient id="paint0_linear_496_2230" x1="40" y1="0" x2="40" y2="80" gradientUnits="userSpaceOnUse">
<stop stop-color="#FF9C5B"/>
<stop offset="0.854167" stop-color="#C7FFF4"/>
</linearGradient>
</defs>
</svg>
