<svg width="24" height="24" viewBox="0 0 24 24" fill="none" xmlns="http://www.w3.org/2000/svg">
<path d="M19.6154 5.83333H16.1538V5.125C16.1538 4.56141 15.935 4.02091 15.5455 3.6224C15.156 3.22388 14.6278 3 14.0769 3H9.92308C9.37224 3 8.84397 3.22388 8.45447 3.6224C8.06497 4.02091 7.84615 4.56141 7.84615 5.125V5.83333H4.38462C4.01739 5.83333 3.66521 5.98259 3.40554 6.24827C3.14588 6.51394 3 6.87428 3 7.25V18.5833C3 18.9591 3.14588 19.3194 3.40554 19.5851C3.66521 19.8507 4.01739 20 4.38462 20H19.6154C19.9826 20 20.3348 19.8507 20.5945 19.5851C20.8541 19.3194 21 18.9591 21 18.5833V7.25C21 6.87428 20.8541 6.51394 20.5945 6.24827C20.3348 5.98259 19.9826 5.83333 19.6154 5.83333ZM9.23077 5.125C9.23077 4.93714 9.30371 4.75697 9.43354 4.62413C9.56337 4.49129 9.73947 4.41667 9.92308 4.41667H14.0769C14.2605 4.41667 14.4366 4.49129 14.5665 4.62413C14.6963 4.75697 14.7692 4.93714 14.7692 5.125V5.83333H9.23077V5.125ZM19.6154 7.25V10.9342C17.2787 12.2356 14.6605 12.9172 12 12.9167C9.33964 12.9172 6.72152 12.2359 4.38462 10.9351V7.25H19.6154ZM19.6154 18.5833H4.38462V12.5306C6.7557 13.7173 9.36046 14.3339 12 14.3333C14.6396 14.3334 17.2443 13.7165 19.6154 12.5297V18.5833ZM9.92308 10.7917C9.92308 10.6038 9.99602 10.4236 10.1258 10.2908C10.2557 10.158 10.4318 10.0833 10.6154 10.0833H13.3846C13.5682 10.0833 13.7443 10.158 13.8742 10.2908C14.004 10.4236 14.0769 10.6038 14.0769 10.7917C14.0769 10.9795 14.004 11.1597 13.8742 11.2925C13.7443 11.4254 13.5682 11.5 13.3846 11.5H10.6154C10.4318 11.5 10.2557 11.4254 10.1258 11.2925C9.99602 11.1597 9.92308 10.9795 9.92308 10.7917Z" fill="#C7997B"/>
</svg>
