<svg width="24" height="24" viewBox="0 0 24 24" fill="none" xmlns="http://www.w3.org/2000/svg">
<path d="M15.338 9.66024C15.1276 9.45041 14.8771 9.28398 14.6008 9.17063C14.3246 9.05728 14.0283 8.99928 13.7292 9.00001C13.43 8.99928 13.1337 9.05728 12.8575 9.17063C12.5813 9.28398 12.3307 9.45041 12.1203 9.66024L11.992 9.79138L11.8637 9.66476C11.4382 9.24502 10.8611 9.00921 10.2594 9.00921C9.65768 9.00921 9.08062 9.24502 8.65513 9.66476C8.23521 10.0874 8 10.6557 8 11.2475C8 11.8394 8.23521 12.4076 8.65513 12.8303L11.7582 15.9008C11.8227 15.9643 11.9101 16 12.0012 16C12.0923 16 12.1796 15.9643 12.2441 15.9008L15.3472 12.8303C15.7673 12.4062 16.0017 11.8363 16 11.2434C15.9983 10.6505 15.7605 10.0819 15.338 9.66024Z" fill="#A57555"/>
<circle cx="12" cy="12" r="11" fill="white"/>
<path d="M9.27441 17V7.80859H12.8799C14.9683 7.80859 16.168 9.09717 16.168 10.9062C16.168 12.7407 14.9492 14.0039 12.8291 14.0039H11.1787V17H9.27441ZM11.1787 12.4678H12.5244C13.6543 12.4678 14.2065 11.833 14.2002 10.9062C14.2065 9.99219 13.6543 9.37646 12.5244 9.37012H11.1787V12.4678Z" fill="#A57555"/>
</svg>
