<svg width="24" height="24" viewBox="0 0 24 24" fill="none" xmlns="http://www.w3.org/2000/svg">
<g clip-path="url(#clip0_270_1059)">
<path fill-rule="evenodd" clip-rule="evenodd" d="M12.0628 1.75H12.0622C9.85846 1.75256 7.7457 2.62913 6.18742 4.18742C4.62913 5.7457 3.75256 7.85846 3.75 10.0622V10.0625C3.75 13.0383 5.12959 16.172 7.69896 19.1269C8.85902 20.4675 10.1646 21.6749 11.5917 22.7269L11.5916 22.7269L11.5967 22.7305C11.7332 22.826 11.8958 22.8773 12.0625 22.8773C12.2292 22.8773 12.3918 22.826 12.5283 22.7305L12.5284 22.7305L12.5333 22.7269C13.9604 21.675 15.2659 20.4676 16.426 19.127C18.9954 16.1721 20.375 13.0412 20.375 10.0625V10.0622C20.3724 7.85846 19.4959 5.7457 17.9376 4.18742C16.3793 2.62913 14.2665 1.75256 12.0628 1.75ZM7.33372 5.33372C8.58787 4.07957 10.2889 3.375 12.0625 3.375C13.8361 3.375 15.5371 4.07957 16.7913 5.33372C18.0454 6.58787 18.75 8.28887 18.75 10.0625C18.75 12.7764 17.4053 15.2753 15.8618 17.2462C14.4241 19.0818 12.8333 20.4346 12.0625 21.0431C11.2917 20.4346 9.7009 19.0818 8.26323 17.2462C6.71971 15.2753 5.375 12.7764 5.375 10.0625C5.375 8.28887 6.07957 6.58787 7.33372 5.33372ZM12.0625 6.25C11.3085 6.25 10.5714 6.4736 9.94439 6.89252C9.31743 7.31145 8.82877 7.90688 8.54021 8.60352C8.25165 9.30016 8.17615 10.0667 8.32326 10.8063C8.47036 11.5458 8.83347 12.2252 9.36666 12.7583C9.89984 13.2915 10.5792 13.6546 11.3187 13.8017C12.0583 13.9489 12.8248 13.8734 13.5215 13.5848C14.2181 13.2962 14.8136 12.8076 15.2325 12.1806C15.6514 11.5537 15.875 10.8165 15.875 10.0625C15.875 9.05136 15.4733 8.08164 14.7583 7.36666C14.0434 6.65167 13.0736 6.25 12.0625 6.25ZM11.6357 7.91703C12.0601 7.83263 12.4999 7.87595 12.8996 8.04151C13.2993 8.20708 13.641 8.48746 13.8813 8.84719C14.1217 9.20692 14.25 9.62985 14.25 10.0625C14.25 10.6427 14.0195 11.1991 13.6093 11.6093C13.1991 12.0195 12.6427 12.25 12.0625 12.25C11.6299 12.25 11.2069 12.1217 10.8472 11.8813C10.4875 11.641 10.2071 11.2993 10.0415 10.8996C9.87595 10.4999 9.83263 10.0601 9.91703 9.63574C10.0014 9.21141 10.2098 8.82163 10.5157 8.5157C10.8216 8.20978 11.2114 8.00144 11.6357 7.91703Z" fill="#C7997B"/>
</g>
<defs>
<clipPath id="clip0_270_1059">
<rect width="24" height="24" fill="white"/>
</clipPath>
</defs>
</svg>
