<svg width="24" height="24" viewBox="0 0 24 24" fill="none" xmlns="http://www.w3.org/2000/svg">
<path d="M22.0615 17.1249L18.664 13.7265L15.2459 2.44931C15.1487 2.12819 14.9739 1.83599 14.7368 1.59859C14.4998 1.36119 14.2079 1.18591 13.8869 1.08828C13.5659 0.990658 13.2258 0.973698 12.8967 1.03891C12.5677 1.10411 12.2597 1.24948 12.0002 1.46212C11.7408 1.24948 11.4328 1.10411 11.1037 1.03891C10.7747 0.973698 10.4346 0.990658 10.1136 1.08828C9.79263 1.18591 9.50069 1.36119 9.26364 1.59859C9.0266 1.83599 8.85176 2.12819 8.75462 2.44931L5.33649 13.7274L1.93899 17.1249C1.6579 17.4062 1.5 17.7876 1.5 18.1852C1.5 18.5829 1.6579 18.9643 1.93899 19.2456L5.00368 22.3102C5.14297 22.4496 5.30835 22.5601 5.49036 22.6355C5.67237 22.7109 5.86745 22.7497 6.06446 22.7497C6.26147 22.7497 6.45655 22.7109 6.63857 22.6355C6.82058 22.5601 6.98595 22.4496 7.12524 22.3102L11.6515 17.7812C11.777 17.6554 11.8935 17.521 12.0002 17.379C12.107 17.521 12.2235 17.6554 12.349 17.7812L16.8752 22.3112C17.0145 22.4505 17.1799 22.561 17.3619 22.6364C17.5439 22.7118 17.739 22.7506 17.936 22.7506C18.133 22.7506 18.3281 22.7118 18.5101 22.6364C18.6921 22.561 18.8575 22.4505 18.9968 22.3112L22.0615 19.2465C22.2008 19.1072 22.3113 18.9418 22.3867 18.7598C22.4621 18.5778 22.501 18.3827 22.501 18.1857C22.501 17.9887 22.4621 17.7936 22.3867 17.6116C22.3113 17.4296 22.2008 17.2642 22.0615 17.1249ZM6.06399 21.2499L3.00024 18.1862L4.18993 16.9965L7.25462 20.0612L6.06399 21.2499ZM11.2502 15.1327C11.2517 15.4286 11.1945 15.7218 11.0819 15.9954C10.9692 16.269 10.8034 16.5175 10.594 16.7265L8.31399 18.9999L5.25024 15.9362L6.52993 14.6556C6.61726 14.5682 6.68167 14.4607 6.71743 14.3424L10.1862 2.88431C10.2214 2.75681 10.302 2.64658 10.4128 2.57439C10.5236 2.5022 10.657 2.47305 10.7879 2.49241C10.9187 2.51178 11.038 2.57833 11.1231 2.67953C11.2083 2.78073 11.2535 2.90958 11.2502 3.04181V15.1327ZM13.4065 16.7265C13.1971 16.5175 13.0313 16.269 12.9186 15.9954C12.806 15.7218 12.7487 15.4286 12.7502 15.1327V3.03899C12.7503 2.9091 12.797 2.78354 12.8818 2.68519C12.9667 2.58683 13.084 2.52223 13.2125 2.50314C13.341 2.48406 13.4721 2.51176 13.5818 2.58121C13.6916 2.65065 13.7728 2.75722 13.8106 2.88149L17.2793 14.3396C17.3151 14.4578 17.3795 14.5654 17.4668 14.6527L18.8252 16.0112L15.694 19.0112L13.4065 16.7265ZM17.9365 21.2499L16.759 20.0715L19.8893 17.0715L21.0002 18.1862L17.9365 21.2499Z" fill="#C7997B"/>
</svg>
