<svg width="16" height="16" viewBox="0 0 16 16" fill="none" xmlns="http://www.w3.org/2000/svg">
<path d="M12.6671 5.82652C11.8693 4.15322 10.1292 3 8.11786 3C7.44578 3 6.78027 3.1316 6.15934 3.38728C5.53841 3.64296 4.97422 4.01772 4.49899 4.49016C4.02375 4.9626 3.64677 5.52347 3.38957 6.14074C3.13238 6.75801 3 7.4196 3 8.08773C3 8.75586 3.13238 9.41745 3.38957 10.0347C3.64677 10.652 4.02375 11.2129 4.49899 11.6853C4.97422 12.1577 5.53841 12.5325 6.15934 12.7882C6.78027 13.0439 7.44578 13.1755 8.11786 13.1755C9.4752 13.1755 10.777 12.6394 11.7367 11.6853C12.3248 11.1007 12.755 10.3884 13 9.61405M12.7239 3.50877V5.99682H10.1768L12.7239 3.50877Z" stroke="#555555" stroke-width="1.5" stroke-linecap="round"/>
</svg>
