<svg width="16" height="16" viewBox="0 0 16 16" fill="none" xmlns="http://www.w3.org/2000/svg">
<path d="M7.40348 1.87795C7.64802 1.38245 8.35458 1.38245 8.59913 1.87795L10.0014 4.71927C10.0985 4.91603 10.2862 5.05241 10.5034 5.08396L13.6389 5.53959C14.1858 5.61905 14.4041 6.29103 14.0084 6.67672L11.7395 8.88838C11.5824 9.04154 11.5107 9.2622 11.5478 9.47847L12.0834 12.6014C12.1768 13.146 11.6052 13.5613 11.1161 13.3042L8.31153 11.8297C8.11731 11.7276 7.88529 11.7276 7.69107 11.8297L4.88653 13.3042C4.39744 13.5613 3.82582 13.146 3.91923 12.6014L4.45485 9.47847C4.49194 9.2622 4.42024 9.04154 4.26312 8.88838L1.99419 6.67672C1.59851 6.29103 1.81685 5.61905 2.36366 5.53959L5.49924 5.08396C5.71638 5.05241 5.9041 4.91603 6.0012 4.71927L7.40348 1.87795Z" fill="#C7997B"/>
</svg>
