<svg width="24" height="24" viewBox="0 0 24 24" fill="none" xmlns="http://www.w3.org/2000/svg">
<path d="M16 13V17M8 5V5.5C8 6.03043 7.78929 6.53914 7.41421 6.91421C7.03914 7.28929 6.53043 7.5 6 7.5C5.46957 7.5 4.96086 7.71071 4.58579 8.08579C4.21071 8.46086 4 8.96957 4 9.5V10M21 14C21 13.7348 20.8946 13.4804 20.7071 13.2929C20.5196 13.1054 20.2652 13 20 13H4C3.73478 13 3.48043 13.1054 3.29289 13.2929C3.10536 13.4804 3 13.7348 3 14V16C3 16.2652 3.10536 16.5196 3.29289 16.7071C3.48043 16.8946 3.73478 17 4 17H20C20.2652 17 20.5196 16.8946 20.7071 16.7071C20.8946 16.5196 21 16.2652 21 16V14Z" stroke="#C7997B" stroke-width="1.5" stroke-linecap="round" stroke-linejoin="round"/>
</svg>
