<svg width="24" height="24" viewBox="0 0 24 24" fill="none" xmlns="http://www.w3.org/2000/svg">
<path d="M14.6992 3.5H19.1992" stroke="#C7997B" stroke-width="1.5" stroke-linecap="round"/>
<path d="M14.6992 20H19.1992" stroke="#C7997B" stroke-width="1.5" stroke-linecap="round"/>
<path d="M17 6V17.5" stroke="#C7997B" stroke-width="1.5"/>
<path d="M15.5 7.5L17 6L18.5 7.5" stroke="#C7997B" stroke-width="1.5" stroke-linecap="round"/>
<path d="M18.5 16L17 17.5L15.5 16" stroke="#C7997B" stroke-width="1.5" stroke-linecap="round"/>
<circle cx="7.5" cy="3.5" r="2" stroke="#C7997B" stroke-width="1.5" stroke-linecap="round"/>
<path d="M5.5 21V14L4.4453 13.2969C4.1671 13.1114 4 12.7992 4 12.4648V9.5C4 8.39543 4.89543 7.5 6 7.5H9C10.1046 7.5 11 8.39543 11 9.5V12.4648C11 12.7992 10.8329 13.1114 10.5547 13.2969L9.5 14V21C9.5 21.5523 9.05228 22 8.5 22H6.5C5.94772 22 5.5 21.5523 5.5 21Z" stroke="#C7997B" stroke-width="1.5" stroke-linecap="round"/>
</svg>
