<svg width="24" height="24" viewBox="0 0 24 24" fill="none" xmlns="http://www.w3.org/2000/svg">
<path fill-rule="evenodd" clip-rule="evenodd" d="M20.5858 10.5858C20.2107 10.9609 20 11.4696 20 12C20 12.5304 20.2107 13.0391 20.5858 13.4142C20.9609 13.7893 21.4696 14 22 14V18C22 18.5304 21.7893 19.0391 21.4142 19.4142C21.0391 19.7893 20.5304 20 20 20H4C3.46957 20 2.96086 19.7893 2.58579 19.4142C2.21071 19.0391 2 18.5304 2 18V14C2.53043 14 3.03914 13.7893 3.41421 13.4142C3.78929 13.0391 4 12.5304 4 12C4 11.4696 3.78929 10.9609 3.41421 10.5858C3.03914 10.2107 2.53043 10 2 10V6C2 5.46957 2.21071 4.96086 2.58579 4.58579C2.96086 4.21071 3.46957 4 4 4H20C20.5304 4 21.0391 4.21071 21.4142 4.58579C21.7893 4.96086 22 5.46957 22 6V10C21.4696 10 20.9609 10.2107 20.5858 10.5858ZM8.5 11.25C8.08579 11.25 7.75 11.5858 7.75 12C7.75 12.4142 8.08579 12.75 8.5 12.75H15.5C15.9142 12.75 16.25 12.4142 16.25 12C16.25 11.5858 15.9142 11.25 15.5 11.25L8.5 11.25Z" fill="white"/>
</svg>
