<svg width="24" height="24" viewBox="0 0 24 24" fill="none" xmlns="http://www.w3.org/2000/svg">
<path fill-rule="evenodd" clip-rule="evenodd" d="M20.5858 10.5858C20.2107 10.9609 20 11.4696 20 12C20 12.5304 20.2107 13.0391 20.5858 13.4142C20.9609 13.7893 21.4696 14 22 14V18C22 18.5304 21.7893 19.0391 21.4142 19.4142C21.0391 19.7893 20.5304 20 20 20H4C3.46957 20 2.96086 19.7893 2.58579 19.4142C2.21071 19.0391 2 18.5304 2 18V14C2.53043 14 3.03914 13.7893 3.41421 13.4142C3.78929 13.0391 4 12.5304 4 12C4 11.4696 3.78929 10.9609 3.41421 10.5858C3.03914 10.2107 2.53043 10 2 10V6C2 5.46957 2.21071 4.96086 2.58579 4.58579C2.96086 4.21071 3.46957 4 4 4H20C20.5304 4 21.0391 4.21071 21.4142 4.58579C21.7893 4.96086 22 5.46957 22 6V10C21.4696 10 20.9609 10.2107 20.5858 10.5858ZM14.6008 9.17063C14.8771 9.28398 15.1276 9.45041 15.338 9.66024C15.7605 10.0819 15.9983 10.6505 16 11.2434C16.0017 11.8363 15.7673 12.4062 15.3472 12.8303L12.2441 15.9008C12.1796 15.9643 12.0923 16 12.0012 16C11.9101 16 11.8227 15.9643 11.7582 15.9008L8.65513 12.8303C8.23521 12.4076 8 11.8394 8 11.2475C8 10.6557 8.23521 10.0874 8.65513 9.66476C9.08062 9.24502 9.65768 9.00921 10.2594 9.00921C10.8611 9.00921 11.4382 9.24502 11.8637 9.66476L11.992 9.79138L12.1203 9.66024C12.3307 9.45041 12.5813 9.28398 12.8575 9.17063C13.1337 9.05728 13.43 8.99928 13.7292 9.00001C14.0283 8.99928 14.3246 9.05728 14.6008 9.17063Z" fill="white"/>
</svg>
