<svg width="24" height="24" viewBox="0 0 24 24" fill="none" xmlns="http://www.w3.org/2000/svg">
<path d="M21.2857 10.6895H2.71429C2.52485 10.6895 2.34316 10.6132 2.20921 10.4774C2.07525 10.3416 2 10.1574 2 9.96534C2 9.77329 2.07525 9.5891 2.20921 9.4533C2.34316 9.3175 2.52485 9.24121 2.71429 9.24121H21.2857C21.4752 9.24121 21.6568 9.3175 21.7908 9.4533C21.9247 9.5891 22 9.77329 22 9.96534C22 10.1574 21.9247 10.3416 21.7908 10.4774C21.6568 10.6132 21.4752 10.6895 21.2857 10.6895Z" fill="#C7997B"/>
<path d="M9.1423 7.79301H6.99944C6.81 7.79301 6.62832 7.71672 6.49437 7.58092C6.36041 7.44512 6.28516 7.26093 6.28516 7.06888V2.72413C6.28516 2.53208 6.36041 2.34789 6.49437 2.21209C6.62832 2.07629 6.81 2 6.99944 2H9.1423C9.33174 2 9.51342 2.07629 9.64738 2.21209C9.78133 2.34789 9.85658 2.53208 9.85658 2.72413V7.06888C9.85658 7.26093 9.78133 7.44512 9.64738 7.58092C9.51342 7.71672 9.33174 7.79301 9.1423 7.79301ZM7.71373 6.34476H8.42801V3.44825H7.71373V6.34476Z" fill="#C7997B"/>
<path d="M17.0017 7.79301H14.8588C14.6694 7.79301 14.4877 7.71672 14.3537 7.58092C14.2198 7.44512 14.1445 7.26093 14.1445 7.06888V2.72413C14.1445 2.53208 14.2198 2.34789 14.3537 2.21209C14.4877 2.07629 14.6694 2 14.8588 2H17.0017C17.1911 2 17.3728 2.07629 17.5068 2.21209C17.6407 2.34789 17.716 2.53208 17.716 2.72413V7.06888C17.716 7.26093 17.6407 7.44512 17.5068 7.58092C17.3728 7.71672 17.1911 7.79301 17.0017 7.79301ZM15.5731 6.34476H16.2874V3.44825H15.5731V6.34476Z" fill="#C7997B"/>
<path d="M14.8583 5.6211H9.14397C8.95453 5.6211 8.77285 5.54481 8.6389 5.40901C8.50494 5.27321 8.42969 5.08903 8.42969 4.89698C8.42969 4.70493 8.50494 4.52074 8.6389 4.38494C8.77285 4.24914 8.95453 4.17285 9.14397 4.17285H14.8583C15.0477 4.17285 15.2294 4.24914 15.3633 4.38494C15.4973 4.52074 15.5725 4.70493 15.5725 4.89698C15.5725 5.08903 15.4973 5.27321 15.3633 5.40901C15.2294 5.54481 15.0477 5.6211 14.8583 5.6211Z" fill="#C7997B"/>
<path d="M16.1964 23.0001H7.80357C6.26489 22.9984 4.78972 22.378 3.70171 21.275C2.61369 20.172 2.0017 18.6765 2 17.1166L2 4.89698C2 4.70493 2.07525 4.52074 2.20921 4.38494C2.34316 4.24914 2.52485 4.17285 2.71429 4.17285H7C7.18944 4.17285 7.37112 4.24914 7.50508 4.38494C7.63903 4.52074 7.71429 4.70493 7.71429 4.89698C7.71429 5.08903 7.63903 5.27321 7.50508 5.40901C7.37112 5.54481 7.18944 5.6211 7 5.6211H3.42857V17.1166C3.42989 18.2925 3.89126 19.4199 4.71144 20.2513C5.53163 21.0828 6.64366 21.5505 7.80357 21.5519H16.1964C17.3563 21.5505 18.4684 21.0828 19.2886 20.2513C20.1087 19.4199 20.5701 18.2925 20.5714 17.1166V5.6211H17C16.8106 5.6211 16.6289 5.54481 16.4949 5.40901C16.361 5.27321 16.2857 5.08903 16.2857 4.89698C16.2857 4.70493 16.361 4.52074 16.4949 4.38494C16.6289 4.24914 16.8106 4.17285 17 4.17285H21.2857C21.4752 4.17285 21.6568 4.24914 21.7908 4.38494C21.9247 4.52074 22 4.70493 22 4.89698V17.1166C21.9983 18.6765 21.3863 20.172 20.2983 21.275C19.2103 22.378 17.7351 22.9984 16.1964 23.0001Z" fill="#C7997B"/>
<path d="M11.9974 20.1039C11.8079 20.1039 11.6262 20.0276 11.4923 19.8918C11.3583 19.756 11.2831 19.5718 11.2831 19.3798V14.6107L11.0738 14.8229C10.9391 14.9548 10.7586 15.0277 10.5714 15.0261C10.3841 15.0244 10.2049 14.9483 10.0725 14.814C9.94006 14.6798 9.86494 14.4982 9.86331 14.3083C9.86168 14.1184 9.93368 13.9355 10.0638 13.7989L11.4924 12.3507C11.5923 12.2494 11.7195 12.1805 11.8581 12.1526C11.9966 12.1246 12.1402 12.139 12.2707 12.1938C12.4012 12.2486 12.5127 12.3414 12.5912 12.4604C12.6697 12.5795 12.7116 12.7194 12.7116 12.8626V19.3798C12.7116 19.5718 12.6364 19.756 12.5024 19.8918C12.3685 20.0276 12.1868 20.1039 11.9974 20.1039Z" fill="#C7997B"/>
<path d="M13.4269 20.1035H10.5698C10.3803 20.1035 10.1986 20.0272 10.0647 19.8914C9.93072 19.7556 9.85547 19.5715 9.85547 19.3794C9.85547 19.1873 9.93072 19.0032 10.0647 18.8674C10.1986 18.7316 10.3803 18.6553 10.5698 18.6553H13.4269C13.6163 18.6553 13.798 18.7316 13.932 18.8674C14.0659 19.0032 14.1412 19.1873 14.1412 19.3794C14.1412 19.5715 14.0659 19.7556 13.932 19.8914C13.798 20.0272 13.6163 20.1035 13.4269 20.1035Z" fill="#C7997B"/>
</svg>
