<svg width="24" height="24" viewBox="0 0 24 24" fill="none" xmlns="http://www.w3.org/2000/svg">
<path d="M15.25 6.5C15.25 8.29493 13.7949 9.75 12 9.75V11.25C14.6234 11.25 16.75 9.12335 16.75 6.5H15.25ZM12 9.75C10.2051 9.75 8.75 8.29493 8.75 6.5H7.25C7.25 9.12335 9.37665 11.25 12 11.25V9.75ZM8.75 6.5C8.75 4.70507 10.2051 3.25 12 3.25V1.75C9.37665 1.75 7.25 3.87665 7.25 6.5H8.75ZM12 3.25C13.7949 3.25 15.25 4.70507 15.25 6.5H16.75C16.75 3.87665 14.6234 1.75 12 1.75V3.25ZM8 14.25H16V12.75H8V14.25ZM16 20.75H8V22.25H16V20.75ZM8 20.75C6.20507 20.75 4.75 19.2949 4.75 17.5H3.25C3.25 20.1234 5.37665 22.25 8 22.25V20.75ZM19.25 17.5C19.25 19.2949 17.7949 20.75 16 20.75V22.25C18.6234 22.25 20.75 20.1234 20.75 17.5H19.25ZM16 14.25C17.7949 14.25 19.25 15.7051 19.25 17.5H20.75C20.75 14.8766 18.6234 12.75 16 12.75V14.25ZM8 12.75C5.37665 12.75 3.25 14.8766 3.25 17.5H4.75C4.75 15.7051 6.20507 14.25 8 14.25V12.75Z" fill="#C7997B"/>
</svg>
