<svg width="255" height="25" viewBox="0 0 255 25" fill="none" xmlns="http://www.w3.org/2000/svg">
<path opacity="0.4" d="M0.898906 18.072L1.11491 17.472L1.61891 17.424C2.11491 17.376 2.51491 17.312 2.81891 17.232C3.12291 17.152 3.37891 16.992 3.58691 16.752C3.79491 16.496 4.00291 16.112 4.21091 15.6L8.38691 2.856C8.43491 2.68 8.45891 2.528 8.45891 2.4C8.45891 2.128 8.33091 1.936 8.07491 1.824C7.81891 1.696 7.36291 1.6 6.70691 1.536L6.25091 1.488L6.44291 0.887999L9.97091 0.959999L17.7949 0.983999L17.9389 5.376H17.3149C17.2989 4.656 17.1869 4.008 16.9789 3.432C16.7869 2.856 16.4669 2.4 16.0189 2.064C15.5709 1.728 14.9629 1.56 14.1949 1.56H10.7389L8.17091 9.408H11.3389C11.6909 9.408 12.0029 9.352 12.2749 9.24C12.5469 9.112 12.8189 8.848 13.0909 8.448C13.3629 8.032 13.6509 7.392 13.9549 6.528H14.5789L13.3549 9.816L12.4189 13.296H11.7949C11.9389 12.848 12.0429 12.456 12.1069 12.12C12.1709 11.784 12.2029 11.488 12.2029 11.232C12.2029 10.8 12.1069 10.496 11.9149 10.32C11.7229 10.128 11.4669 10.032 11.1469 10.032H7.95491L6.03491 15.912C5.93891 16.168 5.89091 16.384 5.89091 16.56C5.89091 16.864 6.05891 17.064 6.39491 17.16C6.73091 17.24 7.33091 17.328 8.19491 17.424L8.65091 17.472L8.43491 18.072L4.37891 18L0.898906 18.072ZM18.1461 18.336C17.6501 18.336 17.2981 18.216 17.0901 17.976C16.8981 17.736 16.8021 17.416 16.8021 17.016C16.8021 16.76 16.8341 16.488 16.8981 16.2C16.9621 15.896 17.0501 15.592 17.1621 15.288L19.2501 9.672C19.3781 9.32 19.4421 9.04 19.4421 8.832C19.4421 8.544 19.3541 8.344 19.1781 8.232C19.0021 8.12 18.7701 8.056 18.4821 8.04C18.2101 8.024 17.9221 8.016 17.6181 8.016L17.7861 7.44L21.6741 7.368L18.6501 15.96C18.5861 16.2 18.5301 16.416 18.4821 16.608C18.4341 16.784 18.4101 16.936 18.4101 17.064C18.4101 17.384 18.5381 17.544 18.7941 17.544C19.1461 17.544 19.4901 17.36 19.8261 16.992C20.1621 16.624 20.4341 16.264 20.6421 15.912L21.0741 16.2C20.7701 16.696 20.3781 17.176 19.8981 17.64C19.4181 18.104 18.8341 18.336 18.1461 18.336ZM21.5061 4.728C21.1221 4.728 20.8021 4.6 20.5461 4.344C20.3061 4.088 20.1861 3.784 20.1861 3.432C20.1861 3.096 20.3061 2.8 20.5461 2.544C20.8021 2.288 21.1221 2.16 21.5061 2.16C21.8421 2.16 22.1301 2.288 22.3701 2.544C22.6261 2.8 22.7541 3.096 22.7541 3.432C22.7541 3.784 22.6261 4.088 22.3701 4.344C22.1301 4.6 21.8421 4.728 21.5061 4.728ZM31.1372 18.336C30.6412 18.336 30.2892 18.216 30.0812 17.976C29.8892 17.736 29.7932 17.424 29.7932 17.04C29.7932 16.8 29.8252 16.536 29.8892 16.248C29.9532 15.96 30.0412 15.664 30.1532 15.36L32.2412 9.456C32.4172 8.944 32.4412 8.528 32.3132 8.208C32.1852 7.872 31.8892 7.704 31.4252 7.704C30.9932 7.704 30.5372 7.84 30.0572 8.112C29.5772 8.368 29.1132 8.704 28.6652 9.12C28.2172 9.536 27.8252 9.984 27.4892 10.464C27.1532 10.944 26.9052 11.4 26.7452 11.832L24.5132 18H22.7852L25.7612 9.744C26.0332 8.96 26.0572 8.48 25.8332 8.304C25.6092 8.112 25.1212 8.016 24.3692 8.016L24.5612 7.44L28.0892 7.368L27.3212 9.936C27.6732 9.44 28.0812 8.984 28.5452 8.568C29.0252 8.136 29.5452 7.784 30.1052 7.512C30.6812 7.24 31.2972 7.104 31.9532 7.104C32.9292 7.104 33.5612 7.36 33.8492 7.872C34.1372 8.384 34.1132 9.112 33.7772 10.056L31.6172 16.08C31.5052 16.416 31.4412 16.744 31.4252 17.064C31.4252 17.384 31.5612 17.544 31.8332 17.544C32.2012 17.544 32.5372 17.376 32.8412 17.04C33.1612 16.688 33.4252 16.336 33.6332 15.984L34.0652 16.272C33.7612 16.768 33.3692 17.24 32.8892 17.688C32.4092 18.12 31.8252 18.336 31.1372 18.336ZM39.2044 18.336C38.4524 18.336 37.8364 18.184 37.3564 17.88C36.8764 17.56 36.5244 17.144 36.3004 16.632C36.0764 16.104 35.9644 15.544 35.9644 14.952C35.9644 13.944 36.1804 12.968 36.6124 12.024C37.0444 11.08 37.6044 10.24 38.2924 9.504C38.9964 8.768 39.7564 8.184 40.5724 7.752C41.3884 7.32 42.1884 7.104 42.9724 7.104C43.6764 7.104 44.2124 7.32 44.5804 7.752C44.9644 8.184 45.1964 8.744 45.2764 9.432L47.2924 3.24C47.3564 3.064 47.3964 2.904 47.4124 2.76C47.4444 2.6 47.4604 2.464 47.4604 2.352C47.4604 2.048 47.3724 1.848 47.1964 1.752C47.0364 1.64 46.8204 1.576 46.5484 1.56C46.2924 1.544 46.0124 1.536 45.7084 1.536L45.8764 0.959999L49.7644 0.887999L44.8444 15.96C44.7804 16.2 44.7244 16.416 44.6764 16.608C44.6284 16.784 44.6044 16.936 44.6044 17.064C44.6044 17.384 44.7324 17.544 44.9884 17.544C45.3404 17.544 45.6844 17.36 46.0204 16.992C46.3564 16.624 46.6284 16.264 46.8364 15.912L47.2684 16.2C46.9644 16.696 46.5724 17.176 46.0924 17.64C45.6124 18.104 45.0284 18.336 44.3404 18.336C43.8444 18.336 43.4924 18.216 43.2844 17.976C43.0924 17.736 42.9964 17.416 42.9964 17.016C42.9964 16.808 43.0204 16.584 43.0684 16.344C43.1164 16.104 43.1804 15.864 43.2604 15.624C42.7004 16.472 42.0764 17.136 41.3884 17.616C40.7164 18.096 39.9884 18.336 39.2044 18.336ZM39.4444 17.712C40.1004 17.712 40.7244 17.488 41.3164 17.04C41.9244 16.592 42.4764 15.968 42.9724 15.168C43.4844 14.352 43.9244 13.424 44.2924 12.384C44.6124 11.504 44.7724 10.688 44.7724 9.936C44.7724 9.28 44.6364 8.752 44.3644 8.352C44.0924 7.936 43.6764 7.728 43.1164 7.728C42.4764 7.728 41.8364 7.976 41.1964 8.472C40.5724 8.952 39.9964 9.584 39.4684 10.368C38.9564 11.152 38.5404 11.992 38.2204 12.888C37.9164 13.768 37.7644 14.616 37.7644 15.432C37.7644 16.184 37.9164 16.752 38.2204 17.136C38.5244 17.52 38.9324 17.712 39.4444 17.712ZM52.9339 24.96C52.4219 24.96 52.0139 24.84 51.7099 24.6C51.3899 24.36 51.2299 24.064 51.2299 23.712C51.2299 23.344 51.3579 23.056 51.6139 22.848C51.8539 22.64 52.1499 22.536 52.5019 22.536C52.8059 22.536 53.0779 22.624 53.3179 22.8C53.5419 22.976 53.7819 23.152 54.0379 23.328C54.2779 23.52 54.5819 23.616 54.9499 23.616C55.4619 23.616 55.9739 23.336 56.4859 22.776L58.4539 20.688C58.7259 20.416 58.9499 20.112 59.1259 19.776C59.3179 19.44 59.4139 19.096 59.4139 18.744C59.4139 18.264 59.2859 17.76 59.0299 17.232C58.7739 16.688 58.4619 16.136 58.0939 15.576C57.6459 14.872 57.2299 14.16 56.8459 13.44C56.4619 12.704 56.2699 12 56.2699 11.328C56.2699 10.48 56.5179 9.8 57.0139 9.288C57.5259 8.776 58.1259 8.304 58.8139 7.872L56.3419 8.016L56.5339 7.44L60.2059 7.248L60.3259 7.656C59.5099 8.056 58.9579 8.472 58.6699 8.904C58.3819 9.336 58.2379 9.84 58.2379 10.416C58.2379 10.912 58.3179 11.448 58.4779 12.024C58.6539 12.6 58.8619 13.168 59.1019 13.728C59.3419 14.288 59.5579 14.816 59.7499 15.312L60.7579 17.784L61.8619 16.416C62.6299 15.456 63.1739 14.624 63.4939 13.92C63.8299 13.216 64.0299 12.624 64.0939 12.144C64.1739 11.664 64.2139 11.296 64.2139 11.04C64.2139 10.688 64.1659 10.376 64.0699 10.104C63.9739 9.832 63.7979 9.568 63.5419 9.312C63.3659 9.136 63.2059 8.968 63.0619 8.808C62.9339 8.648 62.8699 8.44 62.8699 8.184C62.8699 7.976 62.9739 7.744 63.1819 7.488C63.3899 7.232 63.6619 7.104 63.9979 7.104C64.3179 7.104 64.6219 7.288 64.9099 7.656C65.1979 8.024 65.3419 8.64 65.3419 9.504C65.3419 10.432 65.1579 11.464 64.7899 12.6C64.4219 13.72 63.6699 14.992 62.5339 16.416L59.1259 20.64C58.1819 21.824 57.3659 22.728 56.6779 23.352C56.0059 23.976 55.3819 24.4 54.8059 24.624C54.2299 24.848 53.6059 24.96 52.9339 24.96ZM70.5126 18.336C69.6646 18.336 68.9526 18.16 68.3766 17.808C67.8006 17.44 67.3686 16.96 67.0806 16.368C66.8086 15.76 66.6726 15.112 66.6726 14.424C66.6726 13.464 66.8486 12.552 67.2006 11.688C67.5686 10.808 68.0646 10.024 68.6886 9.336C69.3286 8.648 70.0566 8.104 70.8726 7.704C71.6886 7.304 72.5446 7.104 73.4406 7.104C74.3046 7.104 75.0246 7.288 75.6006 7.656C76.1766 8.008 76.6006 8.472 76.8726 9.048C77.1606 9.624 77.3046 10.256 77.3046 10.944C77.3046 11.904 77.1206 12.832 76.7526 13.728C76.4006 14.608 75.9046 15.4 75.2646 16.104C74.6406 16.792 73.9206 17.336 73.1046 17.736C72.2886 18.136 71.4246 18.336 70.5126 18.336ZM70.4886 17.808C71.0806 17.808 71.6326 17.64 72.1446 17.304C72.6566 16.952 73.1206 16.496 73.5366 15.936C73.9686 15.376 74.3366 14.76 74.6406 14.088C74.9446 13.416 75.1766 12.752 75.3366 12.096C75.5126 11.424 75.6006 10.816 75.6006 10.272C75.6006 8.512 74.8966 7.632 73.4886 7.632C72.8966 7.632 72.3446 7.8 71.8326 8.136C71.3206 8.472 70.8486 8.92 70.4166 9.48C70.0006 10.04 69.6406 10.656 69.3366 11.328C69.0326 11.984 68.7926 12.64 68.6166 13.296C68.4566 13.952 68.3766 14.552 68.3766 15.096C68.3766 16.904 69.0806 17.808 70.4886 17.808ZM81.2383 18.336C79.1423 18.336 78.5583 17.128 79.4863 14.712L81.3823 9.696C81.4623 9.52 81.5103 9.36 81.5263 9.216C81.5583 9.056 81.5743 8.92 81.5743 8.808C81.5743 8.52 81.4863 8.32 81.3103 8.208C81.1343 8.096 80.9103 8.04 80.6383 8.04C80.3663 8.024 80.0783 8.016 79.7743 8.016L79.9423 7.44L83.8783 7.368L80.9983 15.408C80.7423 16.096 80.6623 16.656 80.7583 17.088C80.8703 17.52 81.1823 17.736 81.6943 17.736C82.0943 17.736 82.5183 17.608 82.9663 17.352C83.4303 17.096 83.8783 16.76 84.3103 16.344C84.7423 15.928 85.1263 15.48 85.4623 15C85.8143 14.504 86.0783 14.016 86.2543 13.536L88.5343 7.44H90.1183L87.1183 15.96C87.0543 16.2 86.9983 16.416 86.9503 16.608C86.9023 16.784 86.8783 16.936 86.8783 17.064C86.8783 17.384 87.0063 17.544 87.2623 17.544C87.6143 17.544 87.9583 17.36 88.2943 16.992C88.6303 16.624 88.9023 16.264 89.1103 15.912L89.5423 16.2C89.2383 16.696 88.8463 17.176 88.3663 17.64C87.8863 18.104 87.3023 18.336 86.6143 18.336C86.1183 18.336 85.7663 18.216 85.5583 17.976C85.3663 17.736 85.2703 17.416 85.2703 17.016C85.2703 16.696 85.3343 16.296 85.4623 15.816C84.9503 16.488 84.3343 17.08 83.6143 17.592C82.8943 18.088 82.1023 18.336 81.2383 18.336ZM90.9152 18L93.8912 9.744C94.0832 9.216 94.1552 8.832 94.1072 8.592C94.0752 8.336 93.9232 8.176 93.6512 8.112C93.3952 8.048 93.0112 8.016 92.4992 8.016L92.6912 7.44L95.9792 7.368L94.9232 10.896C95.2752 10.224 95.6512 9.6 96.0512 9.024C96.4672 8.448 96.9232 7.984 97.4192 7.632C97.9312 7.28 98.4832 7.104 99.0752 7.104C99.4912 7.104 99.8992 7.232 100.299 7.488C100.699 7.744 100.899 8.152 100.899 8.712C100.899 8.952 100.819 9.192 100.659 9.432C100.515 9.672 100.259 9.792 99.8912 9.792C99.5872 9.792 99.3552 9.712 99.1952 9.552C99.0352 9.376 98.9152 9.112 98.8352 8.76C98.7392 8.28 98.4992 8.04 98.1152 8.04C97.8112 8.04 97.4832 8.184 97.1312 8.472C96.7952 8.76 96.4192 9.232 96.0032 9.888C95.7312 10.336 95.4432 10.872 95.1392 11.496C94.8352 12.104 94.5312 12.816 94.2272 13.632L92.6432 18H90.9152ZM113.083 18.264C112.347 18.264 111.715 18.184 111.187 18.024C110.659 17.864 110.211 17.68 109.843 17.472C109.491 17.248 109.187 17.056 108.931 16.896C108.691 16.736 108.467 16.656 108.259 16.656C108.019 16.656 107.811 16.792 107.635 17.064C107.475 17.336 107.331 17.616 107.203 17.904L106.579 17.544L107.635 14.424L108.379 11.496L109.027 11.544L108.955 12.504V13.2C109.003 14.592 109.363 15.672 110.035 16.44C110.707 17.208 111.627 17.592 112.795 17.592C113.851 17.592 114.691 17.272 115.315 16.632C115.955 15.992 116.275 15.216 116.275 14.304C116.275 13.408 116.107 12.664 115.771 12.072C115.435 11.48 114.915 10.856 114.211 10.2L113.107 9.144C112.739 8.776 112.339 8.384 111.907 7.968C111.491 7.552 111.131 7.088 110.827 6.576C110.539 6.064 110.395 5.48 110.395 4.824C110.395 4.008 110.603 3.296 111.019 2.688C111.435 2.064 112.003 1.584 112.723 1.248C113.459 0.895999 114.307 0.719999 115.267 0.719999C115.907 0.719999 116.459 0.799999 116.923 0.959999C117.387 1.12 117.779 1.312 118.099 1.536C118.435 1.744 118.715 1.928 118.939 2.088C119.163 2.248 119.347 2.328 119.491 2.328C119.619 2.328 119.731 2.256 119.827 2.112C119.939 1.952 120.043 1.696 120.139 1.344L120.787 1.368L120.139 4.056L119.731 6.72L119.107 6.696V5.976C119.091 5.192 118.971 4.456 118.747 3.768C118.523 3.064 118.155 2.496 117.643 2.064C117.131 1.616 116.427 1.392 115.531 1.392C114.987 1.392 114.475 1.52 113.995 1.776C113.515 2.016 113.131 2.36 112.843 2.808C112.555 3.256 112.411 3.784 112.411 4.392C112.411 4.936 112.515 5.408 112.723 5.808C112.931 6.208 113.203 6.584 113.539 6.936C113.875 7.272 114.235 7.624 114.619 7.992L115.699 9.048C116.531 9.832 117.163 10.584 117.595 11.304C118.043 12.024 118.267 12.76 118.267 13.512C118.267 14.392 118.043 15.192 117.595 15.912C117.163 16.632 116.555 17.208 115.771 17.64C115.003 18.056 114.107 18.264 113.083 18.264ZM128.392 18.336C127.272 18.336 126.24 18.112 125.296 17.664C124.368 17.2 123.624 16.512 123.064 15.6C122.52 14.688 122.248 13.56 122.248 12.216C122.248 11.112 122.424 10.008 122.776 8.904C123.144 7.8 123.656 6.752 124.312 5.76C124.968 4.768 125.744 3.888 126.64 3.12C127.552 2.336 128.552 1.728 129.64 1.296C130.744 0.847999 131.912 0.623999 133.144 0.623999C134.28 0.623999 135.296 0.863999 136.192 1.344C137.104 1.824 137.824 2.52 138.352 3.432C138.88 4.344 139.144 5.448 139.144 6.744C139.144 7.864 138.96 8.976 138.592 10.08C138.24 11.184 137.736 12.232 137.08 13.224C136.44 14.216 135.672 15.096 134.776 15.864C133.88 16.632 132.888 17.24 131.8 17.688C130.728 18.12 129.592 18.336 128.392 18.336ZM128.464 17.616C129.344 17.616 130.2 17.408 131.032 16.992C131.864 16.576 132.632 16.008 133.336 15.288C134.056 14.552 134.688 13.712 135.232 12.768C135.792 11.824 136.224 10.816 136.528 9.744C136.832 8.656 136.984 7.56 136.984 6.456C136.984 4.84 136.64 3.584 135.952 2.688C135.264 1.776 134.296 1.32 133.048 1.32C132.168 1.32 131.304 1.528 130.456 1.944C129.624 2.36 128.84 2.944 128.104 3.696C127.384 4.432 126.744 5.28 126.184 6.24C125.64 7.184 125.208 8.2 124.888 9.288C124.584 10.376 124.432 11.48 124.432 12.6C124.432 14.184 124.784 15.416 125.488 16.296C126.208 17.176 127.2 17.616 128.464 17.616ZM138.311 18.072L138.503 17.472L139.007 17.424C139.583 17.36 140.031 17.288 140.351 17.208C140.687 17.128 140.943 17.008 141.119 16.848C141.295 16.672 141.439 16.416 141.551 16.08L145.847 3.024C145.943 2.752 145.991 2.536 145.991 2.376C145.991 2.088 145.855 1.896 145.583 1.8C145.311 1.688 144.847 1.6 144.191 1.536L143.735 1.488L143.927 0.887999L147.503 0.959999L151.079 0.887999L150.887 1.488L150.383 1.536C149.807 1.584 149.335 1.688 148.967 1.848C148.599 2.008 148.295 2.272 148.055 2.64C147.815 3.008 147.583 3.536 147.359 4.224L144.119 14.136C143.975 14.568 143.855 14.952 143.759 15.288C143.679 15.624 143.639 15.912 143.639 16.152C143.639 16.616 143.815 16.952 144.167 17.16C144.519 17.352 145.135 17.448 146.015 17.448H147.815C149.191 17.448 150.319 17.064 151.199 16.296C152.079 15.528 152.799 14.416 153.359 12.96H153.983L152.111 18.072L141.671 18L138.311 18.072ZM153.899 18.072L154.091 17.472L154.595 17.424C155.139 17.36 155.571 17.28 155.891 17.184C156.211 17.088 156.475 16.888 156.683 16.584C156.907 16.28 157.131 15.792 157.355 15.12L161.387 2.832C161.435 2.656 161.459 2.512 161.459 2.4C161.459 2.144 161.331 1.952 161.075 1.824C160.819 1.696 160.363 1.6 159.707 1.536L159.251 1.488L159.443 0.887999L162.971 0.959999H163.235L165.083 0.935999C167.083 0.903999 168.555 1.24 169.499 1.944C170.443 2.648 170.915 3.6 170.915 4.8C170.915 5.904 170.635 6.792 170.075 7.464C169.531 8.12 168.787 8.6 167.843 8.904C166.915 9.208 165.875 9.36 164.723 9.36H164.075C165.227 9.488 166.123 9.872 166.763 10.512C167.419 11.136 167.795 11.992 167.891 13.08L168.011 14.952C168.043 15.816 168.147 16.456 168.323 16.872C168.515 17.272 168.875 17.472 169.403 17.472C169.739 17.472 170.019 17.392 170.243 17.232C170.467 17.072 170.659 16.904 170.819 16.728L171.275 17.136C170.907 17.584 170.499 17.896 170.051 18.072C169.603 18.248 169.147 18.336 168.683 18.336C167.851 18.336 167.155 17.984 166.595 17.28C166.051 16.56 165.755 15.568 165.707 14.304L165.683 13.08C165.635 12.008 165.219 11.144 164.435 10.488C163.667 9.816 162.579 9.44 161.171 9.36L159.035 15.912C158.923 16.232 158.867 16.496 158.867 16.704C158.867 16.96 158.979 17.128 159.203 17.208C159.427 17.288 159.827 17.36 160.403 17.424L160.859 17.472L160.667 18.072L157.379 18L153.899 18.072ZM163.715 1.608L161.363 8.808L164.171 8.832C165.643 8.848 166.787 8.464 167.603 7.68C168.435 6.88 168.851 5.856 168.851 4.608C168.851 4.112 168.739 3.64 168.515 3.192C168.307 2.728 167.931 2.352 167.387 2.064C166.843 1.76 166.075 1.608 165.083 1.608H163.715ZM171.261 18.072L171.453 17.472L171.957 17.424C172.789 17.344 173.413 17.096 173.829 16.68C174.245 16.264 174.621 15.808 174.957 15.312L185.133 0.623999L185.661 0.959999V15.264C185.661 15.696 185.693 16.064 185.757 16.368C185.821 16.672 185.973 16.912 186.213 17.088C186.469 17.248 186.885 17.36 187.461 17.424L187.917 17.472L187.725 18.072L184.245 18L180.765 18.072L180.957 17.472L181.461 17.424C182.165 17.344 182.709 17.176 183.093 16.92C183.493 16.648 183.693 16.08 183.693 15.216V11.808H178.197L175.749 15.336C175.397 15.848 175.221 16.256 175.221 16.56C175.221 17.04 175.741 17.328 176.781 17.424L177.237 17.472L177.045 18.072L174.213 18L171.261 18.072ZM178.629 11.184H183.693V3.84L178.629 11.184ZM190.246 18.072L190.462 17.52L190.846 17.472C191.646 17.36 192.342 17.192 192.934 16.968C193.526 16.744 193.934 16.288 194.158 15.6L198.766 1.512L195.694 1.56C195.022 1.576 194.462 1.656 194.014 1.8C193.566 1.928 193.174 2.144 192.838 2.448C192.502 2.736 192.174 3.128 191.854 3.624C191.534 4.12 191.174 4.736 190.774 5.472L190.15 5.448L191.878 0.887999L199.726 0.959999L207.07 0.887999L207.022 2.832L207.118 5.76H206.518C206.486 4.992 206.358 4.296 206.134 3.672C205.926 3.032 205.614 2.528 205.198 2.16C204.798 1.776 204.278 1.576 203.638 1.56L200.71 1.488L196.174 15.312C196.126 15.456 196.094 15.584 196.078 15.696C196.062 15.808 196.054 15.92 196.054 16.032C196.054 16.496 196.238 16.84 196.606 17.064C196.99 17.272 197.502 17.4 198.142 17.448L199.006 17.52L198.814 18.072L194.446 18H194.182L190.246 18.072ZM204.147 18.072L204.339 17.472L204.843 17.424C205.435 17.36 205.907 17.248 206.259 17.088C206.611 16.928 206.907 16.664 207.147 16.296C207.387 15.928 207.619 15.408 207.843 14.736L211.683 3.024C211.747 2.816 211.779 2.608 211.779 2.4C211.779 2.112 211.651 1.912 211.395 1.8C211.139 1.688 210.683 1.6 210.027 1.536L209.571 1.488L209.763 0.887999L213.339 0.959999L216.915 0.887999L216.723 1.488L216.219 1.536C215.643 1.584 215.171 1.688 214.803 1.848C214.451 2.008 214.155 2.272 213.915 2.64C213.675 3.008 213.435 3.544 213.195 4.248L209.451 15.696C209.403 15.872 209.363 16.032 209.331 16.176C209.299 16.32 209.283 16.448 209.283 16.56C209.283 16.848 209.411 17.048 209.667 17.16C209.923 17.272 210.379 17.36 211.035 17.424L211.491 17.472L211.299 18.072L207.723 18L204.147 18.072ZM222.118 18.336C220.998 18.336 219.966 18.112 219.022 17.664C218.094 17.2 217.35 16.512 216.79 15.6C216.246 14.688 215.974 13.56 215.974 12.216C215.974 11.112 216.15 10.008 216.502 8.904C216.87 7.8 217.382 6.752 218.038 5.76C218.694 4.768 219.47 3.888 220.366 3.12C221.278 2.336 222.278 1.728 223.366 1.296C224.47 0.847999 225.638 0.623999 226.87 0.623999C228.006 0.623999 229.022 0.863999 229.918 1.344C230.83 1.824 231.55 2.52 232.078 3.432C232.606 4.344 232.87 5.448 232.87 6.744C232.87 7.864 232.686 8.976 232.318 10.08C231.966 11.184 231.462 12.232 230.806 13.224C230.166 14.216 229.398 15.096 228.502 15.864C227.606 16.632 226.614 17.24 225.526 17.688C224.454 18.12 223.318 18.336 222.118 18.336ZM222.19 17.616C223.07 17.616 223.926 17.408 224.758 16.992C225.59 16.576 226.358 16.008 227.062 15.288C227.782 14.552 228.414 13.712 228.958 12.768C229.518 11.824 229.95 10.816 230.254 9.744C230.558 8.656 230.71 7.56 230.71 6.456C230.71 4.84 230.366 3.584 229.678 2.688C228.99 1.776 228.022 1.32 226.774 1.32C225.894 1.32 225.03 1.528 224.182 1.944C223.35 2.36 222.566 2.944 221.83 3.696C221.11 4.432 220.47 5.28 219.91 6.24C219.366 7.184 218.934 8.2 218.614 9.288C218.31 10.376 218.158 11.48 218.158 12.6C218.158 14.184 218.51 15.416 219.214 16.296C219.934 17.176 220.926 17.616 222.19 17.616ZM232.278 18.072L232.494 17.472L232.998 17.424C233.494 17.376 233.902 17.304 234.222 17.208C234.542 17.096 234.806 16.912 235.014 16.656C235.222 16.4 235.406 16.024 235.566 15.528L239.55 2.832C239.358 2.432 239.158 2.128 238.95 1.92C238.758 1.712 238.502 1.592 238.182 1.56L237.438 1.488L237.654 0.887999L240.462 0.959999H240.894L247.278 15.072L250.998 3.024C251.046 2.88 251.078 2.752 251.094 2.64C251.11 2.528 251.118 2.424 251.118 2.328C251.102 2.056 250.966 1.872 250.71 1.776C250.454 1.68 250.022 1.6 249.414 1.536L248.958 1.488L249.174 0.887999L251.982 0.959999L254.934 0.887999L254.718 1.488L254.214 1.536C253.718 1.584 253.31 1.656 252.99 1.752C252.67 1.832 252.406 2 252.198 2.256C251.99 2.512 251.806 2.904 251.646 3.432L247.086 18H246.366L239.982 3.84L236.19 16.056C236.126 16.264 236.094 16.456 236.094 16.632C236.11 16.904 236.246 17.088 236.502 17.184C236.758 17.28 237.19 17.36 237.798 17.424L238.254 17.472L238.038 18.072L235.23 18L232.278 18.072Z" fill="white"/>
</svg>
