<svg width="100" height="88" viewBox="0 0 100 88" fill="none" xmlns="http://www.w3.org/2000/svg">
<path d="M1.0912 66.1388V63.2576H14.6662V66.1388H9.60585V79.7865H6.15156V66.1388H1.0912ZM20.2754 72.6197V79.7865H16.8373V63.2576H20.1785V69.577H20.3238C20.6036 68.8452 21.0556 68.2722 21.6797 67.8579C22.3038 67.4382 23.0867 67.2284 24.0283 67.2284C24.8892 67.2284 25.6398 67.4167 26.28 67.7934C26.9257 68.1646 27.4261 68.7 27.7812 69.3994C28.1417 70.0935 28.3193 70.9248 28.3139 71.8933V79.7865H24.8757V72.5067C24.8811 71.7426 24.6874 71.1481 24.2946 70.723C23.9072 70.298 23.3638 70.0854 22.6643 70.0854C22.1962 70.0854 21.7819 70.185 21.4214 70.3841C21.0663 70.5831 20.7865 70.8737 20.5821 71.2557C20.383 71.6323 20.2808 72.087 20.2754 72.6197ZM36.6691 80.0286C35.3939 80.0286 34.2963 79.7704 33.3763 79.2538C32.4616 78.7319 31.7567 77.9948 31.2617 77.0424C30.7667 76.0847 30.5192 74.9521 30.5192 73.6447C30.5192 72.3695 30.7667 71.2503 31.2617 70.2872C31.7567 69.3241 32.4535 68.5735 33.352 68.0355C34.256 67.4974 35.3159 67.2284 36.5319 67.2284C37.3498 67.2284 38.1111 67.3602 38.8159 67.6239C39.5262 67.8821 40.1449 68.2722 40.6722 68.7941C41.2049 69.316 41.6192 69.9725 41.9151 70.7634C42.211 71.5489 42.359 72.469 42.359 73.5236V74.4679H31.8912V72.3372H39.1226C39.1226 71.8422 39.015 71.4037 38.7998 71.0217C38.5846 70.6396 38.286 70.341 37.904 70.1258C37.5273 69.9052 37.0888 69.7949 36.5884 69.7949C36.0665 69.7949 35.6038 69.916 35.2002 70.1581C34.8021 70.3948 34.49 70.715 34.264 71.1185C34.0381 71.5167 33.9224 71.9606 33.917 72.4502V74.4759C33.917 75.0893 34.03 75.6193 34.256 76.0659C34.4873 76.5125 34.8129 76.8568 35.2325 77.0989C35.6522 77.3411 36.1499 77.4621 36.7256 77.4621C37.1076 77.4621 37.4574 77.4083 37.7748 77.3007C38.0923 77.1931 38.364 77.0317 38.59 76.8165C38.8159 76.6012 38.9881 76.3376 39.1065 76.0255L42.2864 76.2354C42.125 76.9994 41.7941 77.6666 41.2937 78.2369C40.7987 78.8019 40.1584 79.2431 39.3728 79.5605C38.5927 79.8726 37.6914 80.0286 36.6691 80.0286ZM52.7763 79.7865H49.0315L54.7375 63.2576H59.241L64.939 79.7865H61.1941L57.0538 67.0347H56.9247L52.7763 79.7865ZM52.5423 73.2895H61.3878V76.0175H52.5423V73.2895ZM66.9284 79.7865V63.2576H70.3666V69.4721H70.4715C70.6221 69.1385 70.84 68.7995 71.1252 68.4552C71.4158 68.1054 71.7924 67.8149 72.2551 67.5835C72.7232 67.3468 73.3043 67.2284 73.9984 67.2284C74.9023 67.2284 75.7363 67.4651 76.5003 67.9386C77.2644 68.4067 77.8751 69.1143 78.3324 70.0612C78.7897 71.0028 79.0184 72.1838 79.0184 73.6043C79.0184 74.9871 78.7951 76.1547 78.3485 77.107C77.9073 78.054 77.3047 78.7723 76.5407 79.2619C75.782 79.7461 74.9319 79.9883 73.9903 79.9883C73.3231 79.9883 72.7555 79.878 72.2874 79.6574C71.8247 79.4368 71.4454 79.1597 71.1494 78.8261C70.8535 78.4871 70.6275 78.1454 70.4715 77.8011H70.3181V79.7865H66.9284ZM70.2939 73.5882C70.2939 74.3253 70.3962 74.9683 70.6006 75.5171C70.8051 76.0659 71.101 76.4936 71.4884 76.8003C71.8758 77.1016 72.3466 77.2523 72.9008 77.2523C73.4604 77.2523 73.9338 77.0989 74.3212 76.7922C74.7086 76.4802 75.0019 76.0497 75.2009 75.5009C75.4054 74.9467 75.5076 74.3091 75.5076 73.5882C75.5076 72.8725 75.4081 72.243 75.209 71.6996C75.0099 71.1562 74.7167 70.7311 74.3293 70.4244C73.9419 70.1177 73.4657 69.9644 72.9008 69.9644C72.3412 69.9644 71.8677 70.1123 71.4803 70.4083C71.0983 70.7042 70.8051 71.1239 70.6006 71.6673C70.3962 72.2107 70.2939 72.851 70.2939 73.5882ZM84.7507 63.2576V79.7865H81.3125V63.2576H84.7507ZM93.1544 80.0286C91.8792 80.0286 90.7816 79.7704 89.8615 79.2538C88.9468 78.7319 88.242 77.9948 87.7469 77.0424C87.2519 76.0847 87.0044 74.9521 87.0044 73.6447C87.0044 72.3695 87.2519 71.2503 87.7469 70.2872C88.242 69.3241 88.9387 68.5735 89.8373 68.0355C90.7412 67.4974 91.8012 67.2284 93.0172 67.2284C93.835 67.2284 94.5963 67.3602 95.3012 67.6239C96.0114 67.8821 96.6302 68.2722 97.1575 68.7941C97.6901 69.316 98.1044 69.9725 98.4004 70.7634C98.6963 71.5489 98.8442 72.469 98.8442 73.5236V74.4679H88.3765V72.3372H95.6079C95.6079 71.8422 95.5003 71.4037 95.285 71.0217C95.0698 70.6396 94.7712 70.341 94.3892 70.1258C94.0125 69.9052 93.574 69.7949 93.0737 69.7949C92.5517 69.7949 92.089 69.916 91.6855 70.1581C91.2873 70.3948 90.9753 70.715 90.7493 71.1185C90.5233 71.5167 90.4076 71.9606 90.4022 72.4502V74.4759C90.4022 75.0893 90.5152 75.6193 90.7412 76.0659C90.9726 76.5125 91.2981 76.8568 91.7178 77.0989C92.1374 77.3411 92.6351 77.4621 93.2109 77.4621C93.5929 77.4621 93.9426 77.4083 94.2601 77.3007C94.5775 77.1931 94.8492 77.0317 95.0752 76.8165C95.3012 76.6012 95.4734 76.3376 95.5917 76.0255L98.7716 76.2354C98.6102 76.9994 98.2793 77.6666 97.7789 78.2369C97.2839 78.8019 96.6436 79.2431 95.8581 79.5605C95.0779 79.8726 94.1767 80.0286 93.1544 80.0286Z" fill="white"/>
<path fill-rule="evenodd" clip-rule="evenodd" d="M75.1537 47.4581L48.8659 0L22.5781 47.4581H38.1641L48.8638 28.1234L59.5636 47.4581H75.1537Z" fill="white"/>
</svg>
