<svg width="24" height="24" viewBox="0 0 24 24" fill="none" xmlns="http://www.w3.org/2000/svg">
<path d="M15.0008 10L12.9793 12.5088C12.1783 13.5029 11.7777 14 11.2508 14C10.7239 14 10.3234 13.5029 9.52232 12.5088L9.00082 11.8616M18.8899 16C20.4917 13.0809 20.9028 9.7498 20.9838 7.6369C21.0301 6.42655 20.0303 5.5 18.8191 5.5H18.2297C17.2632 5.5 16.4797 4.7165 16.4797 3.75C16.4797 2.7835 15.6962 2 14.7297 2H9.5637C8.43612 2 7.52204 2.91409 7.52204 4.04167C7.52204 5.16925 6.60795 6.08333 5.48037 6.08333H5.1715C3.96341 6.08333 2.96517 7.00211 3.02609 8.20867C3.12457 10.1595 3.55806 13.1683 5.11188 16C5.5345 16.7702 6.10848 17.543 6.7459 18.2795C8.72582 20.567 9.71577 21.7107 12.0009 21.7107C14.286 21.7107 15.2759 20.567 17.2558 18.2795C17.8933 17.543 18.4672 16.7702 18.8899 16Z" stroke="#C7997B" stroke-width="1.5" stroke-linecap="round"/>
</svg>
