<svg width="24" height="24" viewBox="0 0 24 24" fill="none" xmlns="http://www.w3.org/2000/svg">
<path d="M20.7113 14.0481L20.3867 14.7242H20.3867L20.7113 14.0481ZM20.7113 9.95192L20.3867 9.27578H20.3867L20.7113 9.95192ZM2.80135 14.282L2.4768 13.6059L2.80135 14.282ZM2.80135 9.71798L3.1259 9.04184L2.80135 9.71798ZM3.28872 9.95192L2.96417 10.6281L3.28872 9.95192ZM3.28872 14.0481L3.61327 14.7242L3.28872 14.0481ZM21.1986 9.71798L21.5232 10.3941H21.5232L21.1986 9.71798ZM21.1986 14.282L21.5232 13.6059H21.5232L21.1986 14.282ZM17.5556 4.75H6.44444V3.25H17.5556V4.75ZM6.44444 19.25H17.5556V20.75H6.44444V19.25ZM3.1259 9.04184L3.61327 9.27578L2.96417 10.6281L2.4768 10.3941L3.1259 9.04184ZM3.61327 14.7242L3.1259 14.9582L2.4768 13.6059L2.96417 13.3719L3.61327 14.7242ZM20.8741 14.9582L20.3867 14.7242L21.0358 13.3719L21.5232 13.6059L20.8741 14.9582ZM20.3867 9.27578L20.8741 9.04184L21.5232 10.3941L21.0358 10.6281L20.3867 9.27578ZM20.3867 14.7242C18.1012 13.6272 18.1012 10.3728 20.3867 9.27578L21.0358 10.6281C19.8848 11.1806 19.8848 12.8194 21.0358 13.3719L20.3867 14.7242ZM3.1259 14.9582C2.89615 15.0684 2.75 15.3007 2.75 15.5556H1.25C1.25 14.7238 1.72698 13.9658 2.4768 13.6059L3.1259 14.9582ZM2.75 8.44444C2.75 8.69929 2.89615 8.93156 3.1259 9.04184L2.4768 10.3941C1.72698 10.0342 1.25 9.27618 1.25 8.44444H2.75ZM3.61327 9.27578C5.89883 10.3728 5.89883 13.6272 3.61327 14.7242L2.96417 13.3719C4.1152 12.8194 4.1152 11.1806 2.96417 10.6281L3.61327 9.27578ZM17.5556 19.25C19.5959 19.25 21.25 17.5959 21.25 15.5556H22.75C22.75 18.4244 20.4244 20.75 17.5556 20.75V19.25ZM20.8741 9.04184C21.1038 8.93156 21.25 8.69929 21.25 8.44444H22.75C22.75 9.27618 22.273 10.0342 21.5232 10.3941L20.8741 9.04184ZM6.44444 20.75C3.57563 20.75 1.25 18.4244 1.25 15.5556H2.75C2.75 17.5959 4.40406 19.25 6.44444 19.25V20.75ZM21.25 15.5556C21.25 15.3007 21.1038 15.0684 20.8741 14.9582L21.5232 13.6059C22.273 13.9658 22.75 14.7238 22.75 15.5556H21.25ZM6.44444 4.75C4.40406 4.75 2.75 6.40406 2.75 8.44444H1.25C1.25 5.57563 3.57563 3.25 6.44444 3.25V4.75ZM17.5556 3.25C20.4244 3.25 22.75 5.57563 22.75 8.44444H21.25C21.25 6.40406 19.5959 4.75 17.5556 4.75V3.25Z" fill="#C7997B"/>
<path d="M10 4L10 20" stroke="#C7997B" stroke-width="1.5" stroke-linecap="round" stroke-dasharray="2 3"/>
</svg>
