<svg width="344" height="283" viewBox="0 0 344 283" fill="none" xmlns="http://www.w3.org/2000/svg">
<path opacity="0.2" d="M77 115C77.2574 115 77.6238 114.807 77.9208 114.614C83.4554 110.958 87 106.673 87 102.327C87 98.5997 84.495 96 81.3366 96C79.3663 96 77.8911 97.117 77 98.7926C76.1188 97.1272 74.6337 96 72.6733 96C69.5149 96 67 98.5997 67 102.327C67 106.673 70.5446 110.958 76.0792 114.614C76.3762 114.807 76.7525 115 77 115Z" fill="#D59B78"/>
<path opacity="0.1" d="M157.5 49C157.873 49 158.404 48.7157 158.835 48.4313C166.86 43.0438 172 36.7285 172 30.3234C172 24.8311 168.368 21 163.788 21C160.931 21 158.792 22.6462 157.5 25.1154C156.222 22.6611 154.069 21 151.226 21C146.647 21 143 24.8311 143 30.3234C143 36.7285 148.14 43.0438 156.165 48.4313C156.596 48.7157 157.141 49 157.5 49Z" fill="#D59B78"/>
<path opacity="0.2" d="M185.5 62C185.59 62 185.718 61.9289 185.822 61.8578C187.759 60.511 189 58.9321 189 57.3308C189 55.9578 188.123 55 187.018 55C186.328 55 185.812 55.4115 185.5 56.0289C185.192 55.4153 184.672 55 183.986 55C182.88 55 182 55.9578 182 57.3308C182 58.9321 183.241 60.511 185.178 61.8578C185.282 61.9289 185.413 62 185.5 62Z" fill="#D59B78"/>
<path opacity="0.1" d="M139.5 88C139.59 88 139.718 87.9289 139.822 87.8578C141.759 86.511 143 84.9321 143 83.3308C143 81.9578 142.123 81 141.018 81C140.328 81 139.812 81.4115 139.5 82.0289C139.192 81.4153 138.672 81 137.986 81C136.88 81 136 81.9578 136 83.3308C136 84.9321 137.241 86.511 139.178 87.8578C139.282 87.9289 139.413 88 139.5 88Z" fill="#D59B78"/>
<path opacity="0.2" d="M200.5 123C200.719 123 201.03 122.827 201.283 122.655C205.987 119.384 209 115.549 209 111.661C209 108.326 206.871 106 204.186 106C202.511 106 201.257 106.999 200.5 108.499C199.751 107.009 198.489 106 196.822 106C194.138 106 192 108.326 192 111.661C192 115.549 195.013 119.384 199.717 122.655C199.97 122.827 200.29 123 200.5 123Z" fill="#D59B78"/>
<path opacity="0.1" d="M295.5 17C295.719 17 296.03 16.8274 296.283 16.6547C300.987 13.3838 304 9.54944 304 5.66061C304 2.32603 301.871 0 299.186 0C297.511 0 296.257 0.999466 295.5 2.49866C294.751 1.00855 293.489 0 291.822 0C289.138 0 287 2.32603 287 5.66061C287 9.54944 290.013 13.3838 294.717 16.6547C294.97 16.8274 295.29 17 295.5 17Z" fill="#D59B78"/>
<path opacity="0.2" d="M268 87C268.412 87 268.998 86.675 269.473 86.3501C278.329 80.1929 284 72.9754 284 65.6553C284 59.3784 279.992 55 274.939 55C271.786 55 269.426 56.8813 268 59.7034C266.59 56.8985 264.214 55 261.077 55C256.024 55 252 59.3784 252 65.6553C252 72.9754 257.671 80.1929 266.527 86.3501C267.002 86.675 267.604 87 268 87Z" fill="#D59B78"/>
<path opacity="0.2" d="M323.5 40C323.642 40 323.843 39.8883 324.006 39.7766C327.05 37.6601 329 35.179 329 32.6627C329 30.5051 327.622 29 325.885 29C324.801 29 323.99 29.6467 323.5 30.6168C323.015 29.6526 322.199 29 321.12 29C319.383 29 318 30.5051 318 32.6627C318 35.179 319.95 37.6601 322.994 39.7766C323.157 39.8883 323.364 40 323.5 40Z" fill="#D59B78"/>
<path opacity="0.4" d="M256 113C256.18 113 256.437 112.858 256.645 112.716C260.519 110.022 263 106.864 263 103.662C263 100.916 261.247 99 259.036 99C257.656 99 256.624 99.8231 256 101.058C255.383 99.8306 254.344 99 252.971 99C250.76 99 249 100.916 249 103.662C249 106.864 251.481 110.022 255.355 112.716C255.563 112.858 255.827 113 256 113Z" fill="#D59B78"/>
<path opacity="0.4" d="M250 244C250.18 244 250.437 243.858 250.645 243.716C254.519 241.022 257 237.864 257 234.662C257 231.916 255.247 230 253.036 230C251.656 230 250.624 230.823 250 232.058C249.383 230.831 248.344 230 246.971 230C244.76 230 243 231.916 243 234.662C243 237.864 245.481 241.022 249.355 243.716C249.563 243.858 249.827 244 250 244Z" fill="#D59B78"/>
<path opacity="0.3" d="M229.5 174C229.59 174 229.718 173.929 229.822 173.858C231.759 172.511 233 170.932 233 169.331C233 167.958 232.123 167 231.018 167C230.328 167 229.812 167.412 229.5 168.029C229.192 167.415 228.672 167 227.986 167C226.88 167 226 167.958 226 169.331C226 170.932 227.241 172.511 229.178 173.858C229.282 173.929 229.413 174 229.5 174Z" fill="#D59B78"/>
<path opacity="0.3" d="M95.5 193C95.5901 193 95.7183 192.929 95.8223 192.858C97.7594 191.511 99 189.932 99 188.331C99 186.958 98.1233 186 97.0178 186C96.3282 186 95.8119 186.412 95.5 187.029C95.1916 186.415 94.6718 186 93.9856 186C92.8802 186 92 186.958 92 188.331C92 189.932 93.2406 191.511 95.1777 192.858C95.2817 192.929 95.4134 193 95.5 193Z" fill="#D59B78"/>
<path opacity="0.2" d="M176 162C176.154 162 176.374 161.878 176.552 161.756C179.873 159.447 182 156.741 182 153.996C182 151.642 180.497 150 178.602 150C177.42 150 176.535 150.706 176 151.764C175.471 150.712 174.58 150 173.404 150C171.509 150 170 151.642 170 153.996C170 156.741 172.127 159.447 175.448 161.756C175.626 161.878 175.851 162 176 162Z" fill="#D59B78"/>
<path opacity="0.2" d="M238.5 167C238.616 167 238.781 166.909 238.914 166.817C241.405 165.086 243 163.056 243 160.997C243 159.231 241.873 158 240.451 158C239.565 158 238.901 158.529 238.5 159.323C238.103 158.534 237.435 158 236.553 158C235.132 158 234 159.231 234 160.997C234 163.056 235.595 165.086 238.086 166.817C238.219 166.909 238.389 167 238.5 167Z" fill="#D59B78"/>
<path opacity="0.2" d="M104.5 186C104.616 186 104.781 185.909 104.914 185.817C107.405 184.086 109 182.056 109 179.997C109 178.231 107.873 177 106.451 177C105.565 177 104.901 177.529 104.5 178.323C104.103 177.534 103.435 177 102.553 177C101.132 177 100 178.231 100 179.997C100 182.056 101.595 184.086 104.086 185.817C104.219 185.909 104.389 186 104.5 186Z" fill="#D59B78"/>
<path opacity="0.2" d="M299 141C299.232 141 299.561 140.817 299.829 140.634C304.81 137.171 308 133.111 308 128.994C308 125.463 305.746 123 302.903 123C301.13 123 299.802 124.058 299 125.646C298.207 124.068 296.87 123 295.106 123C292.263 123 290 125.463 290 128.994C290 133.111 293.19 137.171 298.171 140.634C298.439 140.817 298.777 141 299 141Z" fill="#D59B78"/>
<path opacity="0.2" d="M332.5 199C332.796 199 333.217 198.766 333.559 198.533C339.924 194.107 344 188.92 344 183.658C344 179.147 341.119 176 337.487 176C335.221 176 333.525 177.352 332.5 179.381C331.487 177.365 329.779 176 327.524 176C323.892 176 321 179.147 321 183.658C321 188.92 325.076 194.107 331.441 198.533C331.783 198.766 332.215 199 332.5 199Z" fill="#D59B78"/>
<path opacity="0.3" d="M190.5 283C190.719 283 191.03 282.827 191.283 282.655C195.987 279.384 199 275.549 199 271.661C199 268.326 196.871 266 194.186 266C192.511 266 191.257 266.999 190.5 268.499C189.751 267.009 188.489 266 186.822 266C184.138 266 182 268.326 182 271.661C182 275.549 185.013 279.384 189.717 282.655C189.97 282.827 190.29 283 190.5 283Z" fill="#D59B78"/>
<path opacity="0.4" d="M58.5 163C58.7188 163 59.0302 162.827 59.2827 162.655C63.9871 159.384 67 155.549 67 151.661C67 148.326 64.8708 146 62.1861 146C60.5114 146 59.2574 146.999 58.5 148.499C57.751 147.009 56.4886 146 54.8223 146C52.1376 146 50 148.326 50 151.661C50 155.549 53.0129 159.384 57.7173 162.655C57.9698 162.827 58.2896 163 58.5 163Z" fill="#D59B78"/>
<path opacity="0.2" d="M12 148C12.1545 148 12.3743 147.878 12.5525 147.756C15.8733 145.447 18 142.741 18 139.996C18 137.642 16.497 136 14.602 136C13.4198 136 12.5347 136.706 12 137.764C11.4713 136.712 10.5802 136 9.40396 136C7.50891 136 6 137.642 6 139.996C6 142.741 8.12673 145.447 11.4475 147.756C11.6257 147.878 11.8515 148 12 148Z" fill="#D59B78"/>
<path opacity="0.2" d="M87 119C87.1802 119 87.4366 118.868 87.6446 118.736C91.5188 116.235 94 113.303 94 110.329C94 107.779 92.2465 106 90.0356 106C88.6564 106 87.6238 106.764 87 107.911C86.3832 106.771 85.3436 106 83.9713 106C81.7604 106 80 107.779 80 110.329C80 113.303 82.4812 116.235 86.3554 118.736C86.5634 118.868 86.8267 119 87 119Z" fill="#D59B78"/>
<path opacity="0.2" d="M42 72C42.1802 72 42.4366 71.868 42.6446 71.736C46.5188 69.2346 49 66.3025 49 63.3287C49 60.7787 47.2465 59 45.0356 59C43.6564 59 42.6238 59.7643 42 60.9107C41.3832 59.7712 40.3436 59 38.9713 59C36.7604 59 35 60.7787 35 63.3287C35 66.3025 37.4812 69.2346 41.3554 71.736C41.5634 71.868 41.8267 72 42 72Z" fill="#D59B78"/>
<path opacity="0.2" d="M10.5 53C10.7703 53 11.155 52.8071 11.4668 52.6141C17.2782 48.9583 21 44.6729 21 40.3266C21 36.5997 18.3698 34 15.0535 34C12.9847 34 11.4356 35.117 10.5 36.7926C9.57475 35.1272 8.01535 34 5.95693 34C2.64059 34 0 36.5997 0 40.3266C0 44.6729 3.72178 48.9583 9.53317 52.6141C9.84505 52.8071 10.2401 53 10.5 53Z" fill="#D59B78"/>
</svg>
