<svg width="62" height="20" viewBox="0 0 62 20" fill="none" xmlns="http://www.w3.org/2000/svg">
<path d="M0 0H46C54.8366 0 62 7.16344 62 16V20H16C7.16344 20 0 12.8366 0 4V0Z" fill="#A57555"/>
<path d="M19.5859 4.53125V14.9492H18.707V9.48828H17.1719V14.4102H16.3281V4.76562H17.1719V8.72656H18.707V4.53125H19.5859ZM14.9688 5.80859V6.57031H11.9805V11.5859C13.416 11.5801 14.4121 11.5273 15.5664 11.293L15.6484 12.0664C14.3945 12.3242 13.3281 12.3711 11.7344 12.3711H11.0664V5.80859H14.9688ZM30.5898 12.9102V13.6719H21.0508V12.9102H23.7109V10.4258H21.918V9.66406H23.5469V6.26562H21.8945V5.50391H29.6758V6.26562H28.0234V9.66406H29.6523V10.4258H27.8594V12.9102H30.5898ZM24.4609 9.66406H27.1211V6.26562H24.4609V9.66406ZM24.6367 12.9102H26.9453V10.4258H24.6367V12.9102ZM34.9141 7.33203C34.9141 9.17188 36.1328 11.0586 37.6094 11.7852L37.0469 12.5234C35.8984 11.9199 34.9375 10.6895 34.4805 9.24219C34.0117 10.7832 33.0273 12.0957 31.8555 12.7227L31.2695 11.9844C32.793 11.2344 34 9.23047 34.0117 7.33203V5.43359H34.9141V7.33203ZM39.4844 4.53125V8.76172H41.2305V9.55859H39.4844V14.9492H38.5703V4.53125H39.4844ZM45.543 6.76953C45.543 8.17578 46.6562 9.44141 48.2148 9.93359L47.7461 10.6719C46.5332 10.2617 45.5664 9.40625 45.0977 8.30469C44.6406 9.49414 43.6621 10.4316 42.4258 10.8828L41.9453 10.1445C43.5039 9.59375 44.6172 8.24609 44.6172 6.76953V6.16016H42.1797V5.41016H47.9453V6.16016H45.543V6.76953ZM50.3945 4.54297V12.1836H49.4805V4.54297H50.3945ZM50.7227 13.9531V14.7266H43.668V11.457H44.582V13.9531H50.7227Z" fill="white"/>
</svg>
