<svg width="12" height="12" viewBox="0 0 12 12" fill="none" xmlns="http://www.w3.org/2000/svg">
<path d="M0.90198 2.83617C1.96119 1.13423 3.84917 0 6 0C9.31146 0 11.9994 2.68854 11.9994 5.9994C11.9994 9.31146 9.31146 12 6 12C2.85237 12 0.267053 9.57071 0.0192037 6.4861C0.00480086 6.30486 0.132626 5.9994 0.468694 5.9994C0.703341 5.9994 0.897779 6.17944 0.916983 6.41348C1.12763 9.03541 3.32466 11.0998 6 11.0998C8.81456 11.0998 11.0992 8.81456 11.0992 5.9994C11.0992 3.18544 8.81456 0.90018 6 0.90018C4.17744 0.90018 2.57692 1.85857 1.67553 3.29766L2.87037 3.30066C3.11882 3.30066 3.32046 3.5023 3.32046 3.75075C3.32046 3.9992 3.11882 4.20084 2.87037 4.20084H0.45009C0.20164 4.20084 0 3.9992 0 3.75075V1.32086C0 1.07241 0.20164 0.870774 0.45009 0.870774C0.69854 0.870774 0.90018 1.07181 0.90018 1.32086L0.90198 2.83617Z" fill="#ADA9A1"/>
</svg>
