<svg width="24" height="24" viewBox="0 0 24 24" fill="none" xmlns="http://www.w3.org/2000/svg">
<path d="M3.89844 21L21.8984 2" stroke="#C7997B" stroke-width="1.5" stroke-linecap="round"/>
<path fill-rule="evenodd" clip-rule="evenodd" d="M20.5137 4.5546C19.4471 3.59001 18.0686 3.05026 16.6323 3.05002L16.6332 3.05002L16.6313 3.80002V3.05002L16.6323 3.05002C15.5156 3.04737 14.4229 3.37187 13.482 3.98333C12.9147 4.35194 12.4171 4.8154 12.0077 5.35079C11.4678 4.6292 10.7706 4.0367 9.96309 3.62593C8.75778 3.01282 7.38243 2.84331 6.06829 3.14754C4.75445 3.45171 3.58636 4.20967 2.75667 5.28935C1.92813 6.36753 1.48606 7.70231 1.50034 9.07087C1.5021 11.3643 2.95736 13.7909 4.62233 15.8507C5.42162 16.8396 6.29829 17.7786 7.15026 18.6213L8.1836 17.5336C7.37165 16.7293 6.54175 15.8392 5.7889 14.9078C4.14923 12.8792 3.00033 10.8052 3.00033 9.06668H3.00038L3.00029 9.05836C2.98877 8.02065 3.32397 7.01285 3.94605 6.20334C4.56781 5.39424 5.43731 4.83329 6.4066 4.6089C7.37558 4.38457 8.3905 4.5089 9.28302 4.9629C10.0659 5.36115 10.7151 5.99312 11.1467 6.77657C11.513 7.44166 12.4808 7.44657 12.854 6.78541C13.2082 6.15786 13.704 5.62794 14.2993 5.24109C14.9983 4.78685 15.8065 4.54793 16.6294 4.55002L16.6313 4.55002C17.6774 4.55002 18.6883 4.93823 19.4801 5.64253L20.5137 4.5546ZM9.2678 18.5702C9.80048 19.0624 10.3044 19.5047 10.7489 19.8825C11.4803 20.5043 12.52 20.5043 13.2514 19.8825C14.6371 18.7046 16.6006 16.9006 18.2114 14.9078C19.8511 12.8792 21 10.8052 21 9.06668C21 8.27254 20.7978 7.50164 20.4246 6.82623L21.495 5.69947C22.1462 6.68824 22.5 7.85989 22.5 9.06668C22.5 11.3613 21.044 13.7896 19.378 15.8507C17.6831 17.9475 15.6403 19.8205 14.223 21.0254C12.9314 22.1234 11.0689 22.1233 9.77735 21.0254C9.31779 20.6347 8.79247 20.1738 8.23457 19.6578L9.2678 18.5702ZM1.50034 9.07087L1.50033 9.06668H2.25033L1.50038 9.07501L1.50034 9.07087Z" fill="#C7997B"/>
</svg>
