<svg width="24" height="24" viewBox="0 0 24 24" fill="none" xmlns="http://www.w3.org/2000/svg">
<path d="M16.6313 3.80002C15.6614 3.79756 14.7107 4.07927 13.8906 4.61221C13.1924 5.06593 12.6134 5.68577 12.2008 6.41676C12.1163 6.56646 11.8865 6.56528 11.8036 6.41471C11.301 5.5023 10.5427 4.76219 9.62306 4.29441C8.57414 3.76086 7.379 3.61394 6.23744 3.87822C5.09588 4.14249 4.07708 4.80195 3.35136 5.74634C2.62564 6.69073 2.23697 7.86283 2.25033 9.06668C2.25033 13.0999 7.46015 18.0712 10.2631 20.454C11.2746 21.3138 12.7257 21.3138 13.7372 20.454C16.5402 18.0712 21.75 13.0999 21.75 9.06668C21.75 7.66987 21.2107 6.33028 20.2508 5.34259C19.2908 4.3549 17.9889 3.80002 16.6313 3.80002Z" stroke="#C7997B" stroke-width="1.5"/>
<path d="M18.75 9C18.75 7.75736 17.7426 6.75 16.5 6.75" stroke="#C7997B" stroke-width="1.5" stroke-linecap="round"/>
</svg>
