<svg width="24" height="24" viewBox="0 0 24 24" fill="none" xmlns="http://www.w3.org/2000/svg">
<path fill-rule="evenodd" clip-rule="evenodd" d="M19.8163 12.623C19.8343 12.418 19.8493 12.21 19.8493 12C19.8493 11.79 19.8343 11.582 19.8163 11.376L20.8643 9.64203C20.953 9.49581 20.9999 9.32805 20.9999 9.15703C20.9999 8.986 20.953 8.81825 20.8643 8.67203L19.4473 6.32703C19.3547 6.1778 19.2254 6.05484 19.0716 5.96992C18.9179 5.885 18.7449 5.84096 18.5693 5.84203H16.4773C16.117 5.60457 15.7381 5.39656 15.3443 5.22003L14.2943 3.48503C14.2019 3.33567 14.0725 3.2126 13.9188 3.12766C13.765 3.04272 13.5919 2.99877 13.4163 3.00003H10.5833C10.2213 3.00003 9.88632 3.18503 9.70432 3.48503L8.6553 5.22003C8.2593 5.40003 7.87932 5.60503 7.52332 5.84203H5.4313C5.0683 5.84203 4.73331 6.02703 4.55231 6.32703L3.13629 8.67203C3.04715 8.81809 3 8.9859 3 9.15703C3 9.32815 3.04715 9.49596 3.13629 9.64203L4.1843 11.376C4.16439 11.5835 4.15339 11.7916 4.15131 12C4.15131 12.21 4.1663 12.418 4.1843 12.623L3.13629 14.357C3.04715 14.5031 3 14.6709 3 14.842C3 15.0131 3.04715 15.181 3.13629 15.327L4.55231 17.672C4.73331 17.972 5.06831 18.157 5.43231 18.157H7.52332C7.87932 18.394 8.2593 18.599 8.6553 18.779L9.70529 20.515C9.88629 20.815 10.2213 21 10.5833 21H13.4163C13.7793 21 14.1143 20.815 14.2953 20.515L15.3453 18.779C15.7403 18.599 16.1203 18.394 16.4773 18.157H18.5693C18.9313 18.157 19.2663 17.972 19.4473 17.672L20.8643 15.327C20.953 15.1808 20.9999 15.0131 20.9999 14.842C20.9999 14.671 20.953 14.5032 20.8643 14.357L19.8163 12.623Z" stroke="black" stroke-width="1.5" stroke-linecap="round" stroke-linejoin="round"/>
<path fill-rule="evenodd" clip-rule="evenodd" d="M15.5 11.8999C15.5 12.8282 15.1313 13.7184 14.4749 14.3748C13.8185 15.0312 12.9283 15.3999 12 15.3999C11.0717 15.3999 10.1815 15.0312 9.52512 14.3748C8.86875 13.7184 8.5 12.8282 8.5 11.8999C8.5 10.9716 8.86875 10.0814 9.52512 9.42503C10.1815 8.76865 11.0717 8.3999 12 8.3999C12.9283 8.3999 13.8185 8.76865 14.4749 9.42503C15.1313 10.0814 15.5 10.9716 15.5 11.8999Z" stroke="black" stroke-width="1.5" stroke-linecap="round" stroke-linejoin="round"/>
</svg>
