<svg width="201" height="37" viewBox="0 0 201 37" fill="none" xmlns="http://www.w3.org/2000/svg">
<path d="M14.7584 16.416C10.1024 15.648 8.23044 14.832 8.23044 12.624C8.23044 10.032 11.1104 9.12 14.3744 9.12C19.0304 9.12 22.1984 11.568 22.9184 12.192L25.5104 6.912C20.8064 3.072 15.9104 2.976 14.4704 2.976C6.45444 2.976 2.08644 7.68 2.08644 13.056C2.08644 17.952 5.20644 21.36 14.3744 22.752C18.5984 23.376 20.9024 24.528 20.9024 26.784C20.9024 29.04 18.4544 30.624 14.1824 30.624C11.1104 30.624 6.83844 29.232 4.00644 26.016L0.934438 31.392C1.51044 31.968 5.83044 36.768 14.0864 36.768C22.6304 36.768 27.0464 32.16 27.0464 26.4C27.0464 19.488 21.8144 17.568 14.7584 16.416ZM38.2016 9.12C39.9296 9.12 41.2736 7.776 41.2736 6.048C41.2736 4.32 39.9296 2.976 38.2016 2.976C36.4736 2.976 35.1296 4.32 35.1296 6.048C35.1296 7.776 36.4736 9.12 38.2016 9.12ZM47.4176 9.12C49.1456 9.12 50.4896 7.776 50.4896 6.048C50.4896 4.32 49.1456 2.976 47.4176 2.976C45.6896 2.976 44.3456 4.32 44.3456 6.048C44.3456 7.776 45.6896 9.12 47.4176 9.12ZM42.8096 11.424C35.8016 11.424 30.1376 17.088 30.1376 24.096C30.1376 31.104 35.8016 36.768 42.8096 36.768C49.8176 36.768 55.4816 31.104 55.4816 24.096C55.4816 17.088 49.8176 11.424 42.8096 11.424ZM42.8096 30.624C39.2096 30.624 36.2816 27.696 36.2816 24.096C36.2816 20.496 39.2096 17.568 42.8096 17.568C46.4096 17.568 49.3376 20.496 49.3376 24.096C49.3376 27.696 46.4096 30.624 42.8096 30.624ZM59.3298 2.208V36H65.4738V2.208H59.3298ZM77.3801 17.232V12.192H71.2361V36H77.3801V26.016C77.3801 21.792 80.1641 19.392 82.7561 18.672C84.1481 18.288 85.8281 18.288 87.3641 18.672V11.424C83.0441 11.712 78.9641 13.536 77.3801 17.232ZM108.869 12.192V14.736C106.949 12.528 104.453 11.424 101.573 11.424C94.9968 11.424 89.6688 17.088 89.6688 24.096C89.6688 31.104 94.9968 36.768 101.573 36.768C104.453 36.768 106.949 35.664 108.869 33.456V36H115.013V12.192H108.869ZM102.341 30.624C98.7408 30.624 95.8128 27.696 95.8128 24.096C95.8128 20.496 98.7408 17.568 102.341 17.568C105.941 17.568 108.869 20.496 108.869 24.096C108.869 27.696 105.941 30.624 102.341 30.624ZM122.694 29.232C122.694 33.648 124.566 36.768 128.934 36.768C130.95 36.768 132.246 36.48 133.446 36V30.624C130.422 31.344 128.838 31.2 128.838 27.552V17.568H133.446V12.192H128.838V3.744H122.694V12.192H119.622V17.568H122.694V29.232ZM141.902 9.12C144.254 9.12 146.126 7.248 146.126 4.896C146.126 2.544 144.254 0.671997 141.902 0.671997C139.55 0.671997 137.678 2.544 137.678 4.896C137.678 7.248 139.55 9.12 141.902 9.12ZM138.83 36H144.974V12.192H138.83V36ZM161.497 11.424C154.489 11.424 148.825 17.088 148.825 24.096C148.825 31.104 154.489 36.768 161.497 36.768C168.505 36.768 174.169 31.104 174.169 24.096C174.169 17.088 168.505 11.424 161.497 11.424ZM161.497 30.624C157.897 30.624 154.969 27.696 154.969 24.096C154.969 20.496 157.897 17.568 161.497 17.568C165.097 17.568 168.025 20.496 168.025 24.096C168.025 27.696 165.097 30.624 161.497 30.624ZM191.361 11.424C187.761 11.424 185.793 12.576 184.161 14.496V12.192H178.017V36H184.161V23.712C184.161 19.392 186.753 17.568 189.537 17.568C192.705 17.568 194.145 19.248 194.145 22.944V36H200.289V22.176C200.289 14.976 196.833 11.424 191.361 11.424Z" fill="#9845F9"/>
</svg>
