<svg width="194" height="100" viewBox="0 0 194 100" fill="none" xmlns="http://www.w3.org/2000/svg">
<mask id="path-1-outside-1_1143_2238" maskUnits="userSpaceOnUse" x="4" y="70" width="185" height="25" fill="black">
<rect fill="white" x="4" y="70" width="185" height="25"/>
<path d="M5.8125 71.5H22.7168C24.1133 71.5 25.29 71.5635 26.2471 71.6904C27.2139 71.8076 28.0098 71.9883 28.6348 72.2324C29.2598 72.4766 29.7383 72.7793 30.0703 73.1406C30.4121 73.502 30.6611 73.9268 30.8174 74.415C30.9736 74.9033 31.0615 75.4502 31.0811 76.0557C31.1104 76.6611 31.125 77.3301 31.125 78.0625C31.125 78.8242 31.1055 79.5273 31.0664 80.1719C31.0371 80.8164 30.9248 81.4023 30.7295 81.9297C30.5439 82.4473 30.2412 82.9062 29.8213 83.3066C29.4111 83.6973 28.8203 84.0244 28.0488 84.2881C27.2871 84.5518 26.3154 84.752 25.1338 84.8887C23.9619 85.0254 22.5166 85.0938 20.7979 85.0938H8.625V94H5.8125V71.5ZM8.625 82.75H20.7979C22.0479 82.75 23.0977 82.7305 23.9473 82.6914C24.8066 82.6426 25.5146 82.5596 26.0713 82.4424C26.6279 82.3252 27.0576 82.1592 27.3604 81.9443C27.6631 81.7295 27.8828 81.4463 28.0195 81.0947C28.166 80.7432 28.249 80.3232 28.2686 79.835C28.2979 79.3369 28.3125 78.7461 28.3125 78.0625C28.3125 77.4277 28.2979 76.8809 28.2686 76.4219C28.249 75.9629 28.166 75.5771 28.0195 75.2646C27.8828 74.9521 27.6631 74.7031 27.3604 74.5176C27.0576 74.332 26.6279 74.1904 26.0713 74.0928C25.5146 73.9854 24.8066 73.917 23.9473 73.8877C23.0977 73.8584 22.0479 73.8438 20.7979 73.8438H8.625V82.75ZM60.6562 94H57.8438V89.7812C57.8438 89.0977 57.8291 88.5117 57.7998 88.0234C57.7803 87.5254 57.6973 87.1006 57.5508 86.749C57.4141 86.3975 57.1943 86.1143 56.8916 85.8994C56.5889 85.6846 56.1592 85.5186 55.6025 85.4014C55.0459 85.2842 54.3379 85.2061 53.4785 85.167C52.6289 85.1182 51.5791 85.0938 50.3291 85.0938H37.6875V94H34.875V71.5H50.7979C52.5166 71.5 53.9619 71.5635 55.1338 71.6904C56.3154 71.8076 57.2871 71.9883 58.0488 72.2324C58.8203 72.4766 59.4111 72.7793 59.8213 73.1406C60.2412 73.502 60.5439 73.9268 60.7295 74.415C60.9248 74.9033 61.0371 75.4502 61.0664 76.0557C61.1055 76.6611 61.125 77.3301 61.125 78.0625C61.125 79 61.0566 79.8252 60.9199 80.5381C60.793 81.2412 60.5732 81.8418 60.2607 82.3398C59.9482 82.8379 59.5332 83.2383 59.0156 83.541C58.498 83.834 57.8486 84.0391 57.0674 84.1562C57.8486 84.2734 58.4736 84.4785 58.9424 84.7715C59.4111 85.0645 59.7725 85.4453 60.0264 85.9141C60.2803 86.3828 60.4463 86.9395 60.5244 87.584C60.6123 88.2285 60.6562 88.9609 60.6562 89.7812V94ZM37.6875 82.75H50.7979C52.0479 82.75 53.0977 82.7305 53.9473 82.6914C54.8066 82.6426 55.5146 82.5596 56.0713 82.4424C56.6279 82.3252 57.0576 82.1592 57.3604 81.9443C57.6631 81.7295 57.8828 81.4463 58.0195 81.0947C58.166 80.7432 58.249 80.3232 58.2686 79.835C58.2979 79.3369 58.3125 78.7461 58.3125 78.0625C58.3125 77.4277 58.2979 76.8809 58.2686 76.4219C58.249 75.9629 58.166 75.5771 58.0195 75.2646C57.8828 74.9521 57.6631 74.7031 57.3604 74.5176C57.0576 74.332 56.6279 74.1904 56.0713 74.0928C55.5146 73.9854 54.8066 73.917 53.9473 73.8877C53.0977 73.8584 52.0479 73.8438 50.7979 73.8438H37.6875V82.75ZM65.8125 71.5H68.625V94H65.8125V71.5ZM97.2188 71.5H100.5L88.3125 94H84.5625L72.375 71.5H75.6562L86.4375 92.125L97.2188 71.5ZM126.281 88.8438H108.469L105.656 94H102.375L115.5 71.5H119.25L132.375 94H129.094L126.281 88.8438ZM124.875 86.5L117.375 73.375L109.875 86.5H124.875ZM160.5 71.5V73.8438H149.25V94H146.438V73.8438H135.188V71.5H160.5ZM165.188 94V71.5H187.688V73.8438H168V81.3438H186.75V83.6875H168V91.6562H187.688V94H165.188Z"/>
</mask>
<path d="M5.8125 71.5H22.7168C24.1133 71.5 25.29 71.5635 26.2471 71.6904C27.2139 71.8076 28.0098 71.9883 28.6348 72.2324C29.2598 72.4766 29.7383 72.7793 30.0703 73.1406C30.4121 73.502 30.6611 73.9268 30.8174 74.415C30.9736 74.9033 31.0615 75.4502 31.0811 76.0557C31.1104 76.6611 31.125 77.3301 31.125 78.0625C31.125 78.8242 31.1055 79.5273 31.0664 80.1719C31.0371 80.8164 30.9248 81.4023 30.7295 81.9297C30.5439 82.4473 30.2412 82.9062 29.8213 83.3066C29.4111 83.6973 28.8203 84.0244 28.0488 84.2881C27.2871 84.5518 26.3154 84.752 25.1338 84.8887C23.9619 85.0254 22.5166 85.0938 20.7979 85.0938H8.625V94H5.8125V71.5ZM8.625 82.75H20.7979C22.0479 82.75 23.0977 82.7305 23.9473 82.6914C24.8066 82.6426 25.5146 82.5596 26.0713 82.4424C26.6279 82.3252 27.0576 82.1592 27.3604 81.9443C27.6631 81.7295 27.8828 81.4463 28.0195 81.0947C28.166 80.7432 28.249 80.3232 28.2686 79.835C28.2979 79.3369 28.3125 78.7461 28.3125 78.0625C28.3125 77.4277 28.2979 76.8809 28.2686 76.4219C28.249 75.9629 28.166 75.5771 28.0195 75.2646C27.8828 74.9521 27.6631 74.7031 27.3604 74.5176C27.0576 74.332 26.6279 74.1904 26.0713 74.0928C25.5146 73.9854 24.8066 73.917 23.9473 73.8877C23.0977 73.8584 22.0479 73.8438 20.7979 73.8438H8.625V82.75ZM60.6562 94H57.8438V89.7812C57.8438 89.0977 57.8291 88.5117 57.7998 88.0234C57.7803 87.5254 57.6973 87.1006 57.5508 86.749C57.4141 86.3975 57.1943 86.1143 56.8916 85.8994C56.5889 85.6846 56.1592 85.5186 55.6025 85.4014C55.0459 85.2842 54.3379 85.2061 53.4785 85.167C52.6289 85.1182 51.5791 85.0938 50.3291 85.0938H37.6875V94H34.875V71.5H50.7979C52.5166 71.5 53.9619 71.5635 55.1338 71.6904C56.3154 71.8076 57.2871 71.9883 58.0488 72.2324C58.8203 72.4766 59.4111 72.7793 59.8213 73.1406C60.2412 73.502 60.5439 73.9268 60.7295 74.415C60.9248 74.9033 61.0371 75.4502 61.0664 76.0557C61.1055 76.6611 61.125 77.3301 61.125 78.0625C61.125 79 61.0566 79.8252 60.9199 80.5381C60.793 81.2412 60.5732 81.8418 60.2607 82.3398C59.9482 82.8379 59.5332 83.2383 59.0156 83.541C58.498 83.834 57.8486 84.0391 57.0674 84.1562C57.8486 84.2734 58.4736 84.4785 58.9424 84.7715C59.4111 85.0645 59.7725 85.4453 60.0264 85.9141C60.2803 86.3828 60.4463 86.9395 60.5244 87.584C60.6123 88.2285 60.6562 88.9609 60.6562 89.7812V94ZM37.6875 82.75H50.7979C52.0479 82.75 53.0977 82.7305 53.9473 82.6914C54.8066 82.6426 55.5146 82.5596 56.0713 82.4424C56.6279 82.3252 57.0576 82.1592 57.3604 81.9443C57.6631 81.7295 57.8828 81.4463 58.0195 81.0947C58.166 80.7432 58.249 80.3232 58.2686 79.835C58.2979 79.3369 58.3125 78.7461 58.3125 78.0625C58.3125 77.4277 58.2979 76.8809 58.2686 76.4219C58.249 75.9629 58.166 75.5771 58.0195 75.2646C57.8828 74.9521 57.6631 74.7031 57.3604 74.5176C57.0576 74.332 56.6279 74.1904 56.0713 74.0928C55.5146 73.9854 54.8066 73.917 53.9473 73.8877C53.0977 73.8584 52.0479 73.8438 50.7979 73.8438H37.6875V82.75ZM65.8125 71.5H68.625V94H65.8125V71.5ZM97.2188 71.5H100.5L88.3125 94H84.5625L72.375 71.5H75.6562L86.4375 92.125L97.2188 71.5ZM126.281 88.8438H108.469L105.656 94H102.375L115.5 71.5H119.25L132.375 94H129.094L126.281 88.8438ZM124.875 86.5L117.375 73.375L109.875 86.5H124.875ZM160.5 71.5V73.8438H149.25V94H146.438V73.8438H135.188V71.5H160.5ZM165.188 94V71.5H187.688V73.8438H168V81.3438H186.75V83.6875H168V91.6562H187.688V94H165.188Z" fill="white"/>
<path d="M5.8125 71.5V70.5H4.8125V71.5H5.8125ZM26.2471 71.6904L26.1156 72.6818L26.1267 72.6832L26.2471 71.6904ZM30.0703 73.1406L29.334 73.8173L29.3389 73.8226L29.3438 73.8278L30.0703 73.1406ZM31.0811 76.0557L30.0816 76.0879L30.0818 76.096L30.0822 76.104L31.0811 76.0557ZM31.0664 80.1719L30.0682 80.1114L30.0678 80.1189L30.0674 80.1265L31.0664 80.1719ZM30.7295 81.9297L29.7917 81.5824L29.7882 81.5922L30.7295 81.9297ZM29.8213 83.3066L30.5109 84.0308L30.5114 84.0304L29.8213 83.3066ZM28.0488 84.2881L27.7254 83.3418L27.7217 83.3431L28.0488 84.2881ZM25.1338 84.8887L25.0189 83.8953L25.0179 83.8954L25.1338 84.8887ZM8.625 85.0938V84.0938H7.625V85.0938H8.625ZM8.625 94V95H9.625V94H8.625ZM5.8125 94H4.8125V95H5.8125V94ZM8.625 82.75H7.625V83.75H8.625V82.75ZM23.9473 82.6914L23.9932 83.6904L24.004 83.6898L23.9473 82.6914ZM28.0195 81.0947L27.0965 80.7101L27.0919 80.7211L27.0875 80.7323L28.0195 81.0947ZM28.2686 79.835L27.2703 79.7762L27.2697 79.7856L27.2694 79.795L28.2686 79.835ZM28.2686 76.4219L27.2695 76.4644L27.2699 76.475L27.2706 76.4856L28.2686 76.4219ZM28.0195 75.2646L27.1034 75.6655L27.1086 75.6773L27.1141 75.6891L28.0195 75.2646ZM26.0713 74.0928L25.8818 75.0747L25.8901 75.0763L25.8985 75.0777L26.0713 74.0928ZM23.9473 73.8877L23.9128 74.8871L23.9132 74.8871L23.9473 73.8877ZM8.625 73.8438V72.8438H7.625V73.8438H8.625ZM5.8125 72.5H22.7168V70.5H5.8125V72.5ZM22.7168 72.5C24.0869 72.5 25.2166 72.5625 26.1156 72.6817L26.3786 70.6991C25.3634 70.5645 24.1397 70.5 22.7168 70.5V72.5ZM26.1267 72.6832C27.0441 72.7944 27.7507 72.9607 28.2709 73.1639L28.9986 71.301C28.2689 71.0159 27.3837 70.8209 26.3674 70.6977L26.1267 72.6832ZM28.2709 73.1639C28.8033 73.3718 29.1358 73.6015 29.334 73.8173L30.8066 72.464C30.3408 71.9571 29.7162 71.5813 28.9986 71.301L28.2709 73.1639ZM29.3438 73.8278C29.5794 74.0768 29.753 74.3698 29.865 74.7198L31.7698 74.1103C31.5693 73.4837 31.2448 72.9271 30.7968 72.4534L29.3438 73.8278ZM29.865 74.7198C29.9884 75.1056 30.0645 75.5587 30.0816 76.0879L32.0805 76.0234C32.0585 75.3417 31.9589 74.7011 31.7698 74.1103L29.865 74.7198ZM30.0822 76.104C30.1106 76.6905 30.125 77.343 30.125 78.0625H32.125C32.125 77.3171 32.1101 76.6318 32.0799 76.0073L30.0822 76.104ZM30.125 78.0625C30.125 78.8075 30.1059 79.4902 30.0682 80.1114L32.0646 80.2324C32.1051 79.5645 32.125 78.8409 32.125 78.0625H30.125ZM30.0674 80.1265C30.0422 80.6827 29.9463 81.165 29.7917 81.5824L31.6672 82.277C31.9033 81.6397 32.0321 80.9501 32.0654 80.2173L30.0674 80.1265ZM29.7882 81.5922C29.6581 81.9551 29.4448 82.2839 29.1312 82.5829L30.5114 84.0304C31.0376 83.5286 31.4298 82.9394 31.6708 82.2671L29.7882 81.5922ZM29.1316 82.5825C28.8616 82.8397 28.4158 83.1059 27.7254 83.3418L28.3722 85.2343C29.2248 84.9429 29.9607 84.5548 30.5109 84.0308L29.1316 82.5825ZM27.7217 83.3431C27.0528 83.5746 26.1589 83.7634 25.0189 83.8953L25.2487 85.882C26.4719 85.7405 27.5214 85.5289 28.3759 85.2331L27.7217 83.3431ZM25.0179 83.8954C23.8975 84.0261 22.4937 84.0938 20.7979 84.0938V86.0938C22.5395 86.0938 24.0263 86.0247 25.2497 85.8819L25.0179 83.8954ZM20.7979 84.0938H8.625V86.0938H20.7979V84.0938ZM7.625 85.0938V94H9.625V85.0938H7.625ZM8.625 93H5.8125V95H8.625V93ZM6.8125 94V71.5H4.8125V94H6.8125ZM8.625 83.75H20.7979V81.75H8.625V83.75ZM20.7979 83.75C22.0568 83.75 23.123 83.7304 23.9932 83.6904L23.9013 81.6925C23.0723 81.7306 22.0389 81.75 20.7979 81.75V83.75ZM24.004 83.6898C24.8909 83.6394 25.6534 83.5523 26.2773 83.4209L25.8653 81.4638C25.3759 81.5669 24.7224 81.6458 23.8905 81.693L24.004 83.6898ZM26.2773 83.4209C26.9038 83.289 27.4812 83.0848 27.9391 82.7598L26.7816 81.1288C26.634 81.2336 26.3521 81.3614 25.8653 81.4638L26.2773 83.4209ZM27.9391 82.7598C28.4041 82.4299 28.7451 81.9879 28.9515 81.4572L27.0875 80.7323C27.0205 80.9046 26.9221 81.0291 26.7816 81.1288L27.9391 82.7598ZM28.9426 81.4793C29.1456 80.9923 29.2448 80.4498 29.2678 79.8749L27.2694 79.795C27.2533 80.1967 27.1865 80.4941 27.0965 80.7101L28.9426 81.4793ZM29.2668 79.8937C29.2976 79.3704 29.3125 78.7591 29.3125 78.0625H27.3125C27.3125 78.7331 27.2981 79.3034 27.2703 79.7762L29.2668 79.8937ZM29.3125 78.0625C29.3125 77.4138 29.2976 76.8446 29.2665 76.3582L27.2706 76.4856C27.2981 76.9171 27.3125 77.4416 27.3125 78.0625H29.3125ZM29.2677 76.3794C29.2443 75.8296 29.1429 75.3051 28.925 74.8402L27.1141 75.6891C27.1891 75.8492 27.2538 76.0962 27.2695 76.4644L29.2677 76.3794ZM28.9357 74.8638C28.7135 74.3561 28.3524 73.9527 27.8829 73.665L26.8378 75.3702C26.9738 75.4536 27.0521 75.5482 27.1034 75.6655L28.9357 74.8638ZM27.8829 73.665C27.4284 73.3864 26.8599 73.2159 26.2441 73.1078L25.8985 75.0777C26.3959 75.165 26.6868 75.2776 26.8378 75.3702L27.8829 73.665ZM26.2608 73.1109C25.6339 72.9899 24.8692 72.9185 23.9813 72.8883L23.9132 74.8871C24.7441 74.9154 25.3954 74.9808 25.8818 75.0747L26.2608 73.1109ZM23.9817 72.8883C23.1167 72.8585 22.0545 72.8438 20.7979 72.8438V74.8438C22.0412 74.8438 23.0786 74.8583 23.9128 74.8871L23.9817 72.8883ZM20.7979 72.8438H8.625V74.8438H20.7979V72.8438ZM7.625 73.8438V82.75H9.625V73.8438H7.625ZM60.6562 94V95H61.6562V94H60.6562ZM57.8438 94H56.8438V95H57.8438V94ZM57.7998 88.0234L56.8006 88.0626L56.801 88.073L56.8016 88.0833L57.7998 88.0234ZM57.5508 86.749L56.6188 87.1115L56.6231 87.1226L56.6277 87.1336L57.5508 86.749ZM56.8916 85.8994L56.3129 86.7149L56.8916 85.8994ZM53.4785 85.167L53.4211 86.1654L53.4331 86.166L53.4785 85.167ZM37.6875 85.0938V84.0938H36.6875V85.0938H37.6875ZM37.6875 94V95H38.6875V94H37.6875ZM34.875 94H33.875V95H34.875V94ZM34.875 71.5V70.5H33.875V71.5H34.875ZM55.1338 71.6904L55.0261 72.6847L55.0351 72.6855L55.1338 71.6904ZM58.0488 72.2324L57.7436 73.1847L57.7471 73.1858L58.0488 72.2324ZM59.8213 73.1406L59.1602 73.891L59.169 73.8986L59.8213 73.1406ZM60.7295 74.415L59.7947 74.7703L59.7978 74.7784L59.801 74.7864L60.7295 74.415ZM61.0664 76.0557L60.0676 76.104L60.068 76.112L60.0685 76.12L61.0664 76.0557ZM60.9199 80.5381L59.9378 80.3497L59.9358 80.3604L60.9199 80.5381ZM59.0156 83.541L59.5082 84.4113L59.5144 84.4078L59.5205 84.4042L59.0156 83.541ZM57.0674 84.1562L56.919 83.1673V85.1452L57.0674 84.1562ZM60.5244 87.584L59.5317 87.7043L59.5326 87.7117L59.5336 87.7191L60.5244 87.584ZM37.6875 82.75H36.6875V83.75H37.6875V82.75ZM53.9473 82.6914L53.9932 83.6904L54.004 83.6898L53.9473 82.6914ZM58.0195 81.0947L57.0965 80.7101L57.0919 80.7211L57.0875 80.7323L58.0195 81.0947ZM58.2686 79.835L57.2703 79.7762L57.2697 79.7856L57.2694 79.795L58.2686 79.835ZM58.2686 76.4219L57.2695 76.4644L57.2699 76.475L57.2706 76.4856L58.2686 76.4219ZM58.0195 75.2646L57.1034 75.6655L57.1086 75.6773L57.1141 75.6891L58.0195 75.2646ZM56.0713 74.0928L55.8818 75.0747L55.8901 75.0763L55.8985 75.0777L56.0713 74.0928ZM53.9473 73.8877L53.9128 74.8871L53.9132 74.8871L53.9473 73.8877ZM37.6875 73.8438V72.8438H36.6875V73.8438H37.6875ZM60.6562 93H57.8438V95H60.6562V93ZM58.8438 94V89.7812H56.8438V94H58.8438ZM58.8438 89.7812C58.8438 89.0849 58.8289 88.4778 58.798 87.9635L56.8016 88.0833C56.8293 88.5456 56.8438 89.1105 56.8438 89.7812H58.8438ZM58.799 87.9843C58.7762 87.4021 58.6777 86.8537 58.4739 86.3644L56.6277 87.1336C56.7168 87.3475 56.7843 87.6486 56.8006 88.0626L58.799 87.9843ZM58.4828 86.3866C58.2764 85.8558 57.9353 85.4139 57.4703 85.0839L56.3129 86.7149C56.4533 86.8146 56.5517 86.9391 56.6188 87.1115L58.4828 86.3866ZM57.4703 85.0839C57.0125 84.759 56.435 84.5547 55.8085 84.4228L55.3965 86.3799C55.8833 86.4824 56.1652 86.6102 56.3129 86.7149L57.4703 85.0839ZM55.8085 84.4228C55.1796 84.2904 54.4129 84.2084 53.5239 84.168L53.4331 86.166C54.2629 86.2037 54.9122 86.278 55.3965 86.3799L55.8085 84.4228ZM53.5359 84.1686C52.6606 84.1183 51.5903 84.0938 50.3291 84.0938V86.0938C51.5679 86.0938 52.5972 86.118 53.4211 86.1653L53.5359 84.1686ZM50.3291 84.0938H37.6875V86.0938H50.3291V84.0938ZM36.6875 85.0938V94H38.6875V85.0938H36.6875ZM37.6875 93H34.875V95H37.6875V93ZM35.875 94V71.5H33.875V94H35.875ZM34.875 72.5H50.7979V70.5H34.875V72.5ZM50.7979 72.5C52.4953 72.5 53.9021 72.5628 55.0261 72.6846L55.2415 70.6962C54.0217 70.5641 52.5379 70.5 50.7979 70.5V72.5ZM55.0351 72.6855C56.1769 72.7988 57.0729 72.9697 57.7436 73.1847L58.354 71.2801C57.5014 71.0068 56.454 70.8165 55.2325 70.6953L55.0351 72.6855ZM57.7471 73.1858C58.4442 73.4064 58.8921 73.6548 59.1603 73.891L60.4823 72.3903C59.9301 71.9038 59.1965 71.5467 58.3505 71.279L57.7471 73.1858ZM59.169 73.8986C59.4706 74.1581 59.6719 74.4471 59.7947 74.7703L61.6643 74.0598C61.416 73.4064 61.0118 72.8458 60.4735 72.3826L59.169 73.8986ZM59.801 74.7864C59.9494 75.1573 60.0428 75.5928 60.0676 76.104L62.0652 76.0073C62.0314 75.3076 61.9003 74.6494 61.658 74.0436L59.801 74.7864ZM60.0685 76.12C60.1059 76.7002 60.125 77.3473 60.125 78.0625H62.125C62.125 77.3128 62.105 76.622 62.0643 75.9913L60.0685 76.12ZM60.125 78.0625C60.125 78.954 60.0598 79.7138 59.9378 80.3497L61.902 80.7264C62.0535 79.9366 62.125 79.046 62.125 78.0625H60.125ZM59.9358 80.3604C59.8268 80.9642 59.6455 81.439 59.4137 81.8084L61.1078 82.8713C61.501 82.2446 61.7591 81.5182 61.904 80.7158L59.9358 80.3604ZM59.4137 81.8084C59.1886 82.1671 58.8921 82.4548 58.5107 82.6778L59.5205 84.4042C60.1743 84.0218 60.7079 83.5087 61.1078 82.8713L59.4137 81.8084ZM58.523 82.6708C58.1406 82.8872 57.6167 83.0627 56.919 83.1673L57.2157 85.1452C58.0806 85.0155 58.8555 84.7807 59.5082 84.4113L58.523 82.6708ZM56.919 85.1452C57.6185 85.2501 58.0985 85.4233 58.4124 85.6195L59.4724 83.9235C58.8488 83.5337 58.0787 83.2968 57.2157 83.1673L56.919 85.1452ZM58.4124 85.6195C58.7402 85.8243 58.9786 86.0794 59.1471 86.3903L60.9057 85.4378C60.5663 84.8113 60.0821 84.3046 59.4724 83.9235L58.4124 85.6195ZM59.1471 86.3903C59.3297 86.7274 59.4655 87.1581 59.5317 87.7043L61.5171 87.4637C61.4271 86.7208 61.2309 86.0382 60.9057 85.4378L59.1471 86.3903ZM59.5336 87.7191C59.614 88.3091 59.6562 88.9951 59.6562 89.7812H61.6562C61.6562 88.9268 61.6106 88.148 61.5152 87.4489L59.5336 87.7191ZM59.6562 89.7812V94H61.6562V89.7812H59.6562ZM37.6875 83.75H50.7979V81.75H37.6875V83.75ZM50.7979 83.75C52.0568 83.75 53.123 83.7304 53.9932 83.6904L53.9013 81.6925C53.0723 81.7306 52.0389 81.75 50.7979 81.75V83.75ZM54.004 83.6898C54.8909 83.6394 55.6534 83.5523 56.2773 83.4209L55.8653 81.4638C55.3759 81.5669 54.7224 81.6458 53.8905 81.693L54.004 83.6898ZM56.2773 83.4209C56.9038 83.289 57.4812 83.0848 57.9391 82.7598L56.7816 81.1288C56.634 81.2336 56.3521 81.3614 55.8653 81.4638L56.2773 83.4209ZM57.9391 82.7598C58.4041 82.4299 58.7451 81.9879 58.9515 81.4572L57.0875 80.7323C57.0205 80.9046 56.9221 81.0291 56.7816 81.1288L57.9391 82.7598ZM58.9426 81.4793C59.1456 80.9923 59.2448 80.4498 59.2678 79.8749L57.2694 79.795C57.2533 80.1967 57.1865 80.4941 57.0965 80.7101L58.9426 81.4793ZM59.2668 79.8937C59.2976 79.3704 59.3125 78.7591 59.3125 78.0625H57.3125C57.3125 78.7331 57.2981 79.3034 57.2703 79.7762L59.2668 79.8937ZM59.3125 78.0625C59.3125 77.4138 59.2976 76.8446 59.2665 76.3582L57.2706 76.4856C57.2981 76.9171 57.3125 77.4416 57.3125 78.0625H59.3125ZM59.2677 76.3794C59.2443 75.8296 59.1429 75.3051 58.925 74.8402L57.1141 75.6891C57.1891 75.8492 57.2538 76.0962 57.2695 76.4644L59.2677 76.3794ZM58.9357 74.8638C58.7135 74.3561 58.3524 73.9527 57.8829 73.665L56.8378 75.3702C56.9738 75.4536 57.0521 75.5482 57.1034 75.6655L58.9357 74.8638ZM57.8829 73.665C57.4284 73.3864 56.8599 73.2159 56.2441 73.1078L55.8985 75.0777C56.3959 75.165 56.6868 75.2776 56.8378 75.3702L57.8829 73.665ZM56.2608 73.1109C55.6339 72.9899 54.8692 72.9185 53.9813 72.8883L53.9132 74.8871C54.7441 74.9154 55.3954 74.9808 55.8818 75.0747L56.2608 73.1109ZM53.9817 72.8883C53.1167 72.8585 52.0546 72.8438 50.7979 72.8438V74.8438C52.0412 74.8438 53.0786 74.8583 53.9128 74.8871L53.9817 72.8883ZM50.7979 72.8438H37.6875V74.8438H50.7979V72.8438ZM36.6875 73.8438V82.75H38.6875V73.8438H36.6875ZM65.8125 71.5V70.5H64.8125V71.5H65.8125ZM68.625 71.5H69.625V70.5H68.625V71.5ZM68.625 94V95H69.625V94H68.625ZM65.8125 94H64.8125V95H65.8125V94ZM65.8125 72.5H68.625V70.5H65.8125V72.5ZM67.625 71.5V94H69.625V71.5H67.625ZM68.625 93H65.8125V95H68.625V93ZM66.8125 94V71.5H64.8125V94H66.8125ZM97.2188 71.5V70.5H96.6131L96.3325 71.0367L97.2188 71.5ZM100.5 71.5L101.379 71.9763L102.179 70.5H100.5V71.5ZM88.3125 94V95H88.9081L89.1918 94.4763L88.3125 94ZM84.5625 94L83.6832 94.4763L83.9669 95H84.5625V94ZM72.375 71.5V70.5H70.6961L71.4957 71.9763L72.375 71.5ZM75.6562 71.5L76.5425 71.0367L76.2619 70.5H75.6562V71.5ZM86.4375 92.125L85.5513 92.5883L86.4375 94.2836L87.3237 92.5883L86.4375 92.125ZM97.2188 72.5H100.5V70.5H97.2188V72.5ZM99.6207 71.0237L87.4332 93.5237L89.1918 94.4763L101.379 71.9763L99.6207 71.0237ZM88.3125 93H84.5625V95H88.3125V93ZM85.4418 93.5237L73.2543 71.0237L71.4957 71.9763L83.6832 94.4763L85.4418 93.5237ZM72.375 72.5H75.6562V70.5H72.375V72.5ZM74.77 71.9633L85.5513 92.5883L87.3237 91.6617L76.5425 71.0367L74.77 71.9633ZM87.3237 92.5883L98.105 71.9633L96.3325 71.0367L85.5513 91.6617L87.3237 92.5883ZM126.281 88.8438L127.159 88.3649L126.875 87.8438H126.281V88.8438ZM108.469 88.8438V87.8438H107.875L107.591 88.3649L108.469 88.8438ZM105.656 94V95H106.25L106.534 94.4789L105.656 94ZM102.375 94L101.511 93.4961L100.634 95H102.375V94ZM115.5 71.5V70.5H114.926L114.636 70.9961L115.5 71.5ZM119.25 71.5L120.114 70.9961L119.824 70.5H119.25V71.5ZM132.375 94V95H134.116L133.239 93.4961L132.375 94ZM129.094 94L128.216 94.4789L128.5 95H129.094V94ZM124.875 86.5V87.5H126.598L125.743 86.0039L124.875 86.5ZM117.375 73.375L118.243 72.8789L117.375 71.3594L116.507 72.8789L117.375 73.375ZM109.875 86.5L109.007 86.0039L108.152 87.5H109.875V86.5ZM126.281 87.8438H108.469V89.8438H126.281V87.8438ZM107.591 88.3649L104.778 93.5211L106.534 94.4789L109.347 89.3226L107.591 88.3649ZM105.656 93H102.375V95H105.656V93ZM103.239 94.5039L116.364 72.0039L114.636 70.9961L101.511 93.4961L103.239 94.5039ZM115.5 72.5H119.25V70.5H115.5V72.5ZM118.386 72.0039L131.511 94.5039L133.239 93.4961L120.114 70.9961L118.386 72.0039ZM132.375 93H129.094V95H132.375V93ZM129.972 93.5211L127.159 88.3649L125.403 89.3226L128.216 94.4789L129.972 93.5211ZM125.743 86.0039L118.243 72.8789L116.507 73.8711L124.007 86.9961L125.743 86.0039ZM116.507 72.8789L109.007 86.0039L110.743 86.9961L118.243 73.8711L116.507 72.8789ZM109.875 87.5H124.875V85.5H109.875V87.5ZM160.5 71.5H161.5V70.5H160.5V71.5ZM160.5 73.8438V74.8438H161.5V73.8438H160.5ZM149.25 73.8438V72.8438H148.25V73.8438H149.25ZM149.25 94V95H150.25V94H149.25ZM146.438 94H145.438V95H146.438V94ZM146.438 73.8438H147.438V72.8438H146.438V73.8438ZM135.188 73.8438H134.188V74.8438H135.188V73.8438ZM135.188 71.5V70.5H134.188V71.5H135.188ZM159.5 71.5V73.8438H161.5V71.5H159.5ZM160.5 72.8438H149.25V74.8438H160.5V72.8438ZM148.25 73.8438V94H150.25V73.8438H148.25ZM149.25 93H146.438V95H149.25V93ZM147.438 94V73.8438H145.438V94H147.438ZM146.438 72.8438H135.188V74.8438H146.438V72.8438ZM136.188 73.8438V71.5H134.188V73.8438H136.188ZM135.188 72.5H160.5V70.5H135.188V72.5ZM165.188 94H164.188V95H165.188V94ZM165.188 71.5V70.5H164.188V71.5H165.188ZM187.688 71.5H188.688V70.5H187.688V71.5ZM187.688 73.8438V74.8438H188.688V73.8438H187.688ZM168 73.8438V72.8438H167V73.8438H168ZM168 81.3438H167V82.3438H168V81.3438ZM186.75 81.3438H187.75V80.3438H186.75V81.3438ZM186.75 83.6875V84.6875H187.75V83.6875H186.75ZM168 83.6875V82.6875H167V83.6875H168ZM168 91.6562H167V92.6562H168V91.6562ZM187.688 91.6562H188.688V90.6562H187.688V91.6562ZM187.688 94V95H188.688V94H187.688ZM166.188 94V71.5H164.188V94H166.188ZM165.188 72.5H187.688V70.5H165.188V72.5ZM186.688 71.5V73.8438H188.688V71.5H186.688ZM187.688 72.8438H168V74.8438H187.688V72.8438ZM167 73.8438V81.3438H169V73.8438H167ZM168 82.3438H186.75V80.3438H168V82.3438ZM185.75 81.3438V83.6875H187.75V81.3438H185.75ZM186.75 82.6875H168V84.6875H186.75V82.6875ZM167 83.6875V91.6562H169V83.6875H167ZM168 92.6562H187.688V90.6562H168V92.6562ZM186.688 91.6562V94H188.688V91.6562H186.688ZM187.688 93H165.188V95H187.688V93Z" fill="white" mask="url(#path-1-outside-1_1143_2238)"/>
<path d="M93.2641 25.8999V19.4444H95.5645C97.0669 19.4444 97.8025 20.345 97.8025 21.5398C97.8025 22.7301 97.0625 23.6351 95.5645 23.6351H94.2449V25.8999H93.2641ZM94.2449 22.797H95.4664C96.416 22.8014 96.8128 22.2665 96.8128 21.5398C96.8128 20.8086 96.416 20.287 95.4664 20.2825H94.2449V22.797Z" fill="white"/>
<path d="M93.4149 35.9444L95.2071 41.1962H95.2784L97.0706 35.9444H98.1317L95.8045 42.3999H94.6721L92.3538 35.9444H93.4149Z" fill="white"/>
<path d="M80 30.9873L95 5L110 30.9873L95 56L80 30.9873Z" stroke="white" stroke-width="1.2"/>
<path d="M86 31H104" stroke="white" stroke-width="1.2"/>
</svg>
