<svg width="23" height="14" viewBox="0 0 23 14" fill="none" xmlns="http://www.w3.org/2000/svg">
<path d="M9.06055 10.3043L11.2 8.62076L13.3215 10.2864L12.5049 7.6587L14.5761 5.96078H12.0633L11.2 3.41925L10.3367 5.96078H7.82388L9.88618 7.6587L9.06055 10.3043ZM1.05896 14C0.756236 14 0.504064 13.8992 0.302448 13.6976C0.100816 13.4959 0 13.2438 0 12.941V9.7031C0.575557 9.50686 1.04791 9.16582 1.41706 8.68001C1.78621 8.19419 1.97079 7.63419 1.97079 7C1.97079 6.36581 1.78621 5.80192 1.41706 5.30833C1.04791 4.81473 0.575557 4.47759 0 4.29689V1.05896C0 0.756236 0.100816 0.504064 0.302448 0.302448C0.504064 0.100816 0.756236 0 1.05896 0H21.3411C21.6438 0 21.896 0.100816 22.0976 0.302448C22.2992 0.504064 22.4 0.756236 22.4 1.05896V4.29689C21.8245 4.47759 21.3521 4.81473 20.983 5.30833C20.6138 5.80192 20.4292 6.36581 20.4292 7C20.4292 7.63419 20.6138 8.19419 20.983 8.68001C21.3521 9.16582 21.8245 9.50686 22.4 9.7031V12.941C22.4 13.2438 22.2992 13.4959 22.0976 13.6976C21.896 13.8992 21.6438 14 21.3411 14H1.05896Z" fill="#776F62"/>
</svg>
