<svg width="16" height="16" viewBox="0 0 16 16" fill="none" xmlns="http://www.w3.org/2000/svg">
<path d="M8.40614 0.680506C8.14757 0.565588 7.85243 0.565588 7.59386 0.680506L2.59386 2.90273C2.23273 3.06323 2 3.42135 2 3.81654V7.16667C2 10.7815 4.44344 14.1672 7.76374 15.1045C7.91814 15.1481 8.08186 15.1481 8.23626 15.1045C11.5566 14.1672 14 10.7815 14 7.16667V3.81654C14 3.42135 13.7673 3.06323 13.4061 2.90273L8.40614 0.680506ZM10.0533 10.5L8 9.26667L5.95333 10.5L6.49333 8.16667L4.68667 6.60667L7.07333 6.4L8 4.2L8.92667 6.39333L11.3133 6.6L9.50667 8.16667L10.0533 10.5Z" fill="#DAA676"/>
</svg>
